<svg xmlns="http://www.w3.org/2000/svg" viewBox="0 0 323.41 323.39"><defs><style>.cls-1{fill:#d0a64b;}.cls-2{fill:#fefefe;}.cls-3{fill:#2b2e7a;}.cls-4{fill:#981a1b;}.cls-5{fill:#9d1c1d;}.cls-6{fill:#c42528;}.cls-7{fill:#a11d1e;}.cls-8{fill:#c8272a;}.cls-9{fill:#c82729;}.cls-10{fill:#d0a64c;}.cls-11{fill:#c02427;}.cls-12{fill:#c02326;}.cls-13{fill:#9e1c1d;}.cls-14{fill:#bf2326;}.cls-15{fill:#ad1f21;}.cls-16{fill:#a51e1f;}.cls-17{fill:#ac1f21;}.cls-18{fill:#b42123;}.cls-19{fill:#b62123;}.cls-20{fill:#b72123;}.cls-21{fill:#bc2225;}.cls-22{fill:#bb2225;}.cls-23{fill:#be2326;}.cls-24{fill:#b52123;}.cls-25{fill:#ba2224;}.cls-26{fill:#b72324;}.cls-27{fill:#a41e1f;}.cls-28{fill:#a71e1f;}.cls-29{fill:#a71f1f;}.cls-30{fill:#a61e1f;}.cls-31{fill:#af2021;}.cls-32{fill:#33357e;}.cls-33{fill:#b02022;}.cls-34{fill:#b92224;}.cls-35{fill:#ae2223;}.cls-36{fill:#b32122;}.cls-37{fill:#b72124;}.cls-38{fill:#ad2021;}.cls-39{fill:#b82224;}.cls-40{fill:#b02021;}.cls-41{fill:#ab1f20;}.cls-42{fill:#ad2123;}.cls-43{fill:#b02223;}.cls-44{fill:#a71f20;}.cls-45{fill:#b22122;}.cls-46{fill:#b02323;}</style></defs><g id="Layer_2" data-name="Layer 2"><g id="Layer_1-2" data-name="Layer 1"><path class="cls-1" d="M155.2,294.81V272c0-1.09-.59-1.53-1.63-1.28-.31.07-.37.26-.38.52s0,.63,0,1c0,12.67,0,25.34,0,38a3.45,3.45,0,0,1-1.4,3,7.46,7.46,0,0,1-7.32,1.34,4.75,4.75,0,0,1-3.43-5.15c.14-2.47.42-4.93.65-7.4q.54-6,1.1-12c.35-3.77.74-7.53,1.12-11.3.26-2.7.48-5.4.8-8.09.13-1.14-.7-.93-1.29-1.07-.9-.22-.6.53-.64.91q-1.19,12-2.34,23.94c0,.36-.05.72-.07,1.08-.11,2-.63,2.63-2.56,2.93-5,.76-9.43-3.22-8.3-8.42,1.56-7.18,2.86-14.43,4.32-21.64.21-1.05-.51-.94-1.06-1.16-.81-.32-.72.28-.81.73-1.11,5.64-2.24,11.27-3.35,16.9-.32,1.6-.53,1.79-2.18,1.87-3.61.18-6.54-1.75-7.26-4.78a6.74,6.74,0,0,1,.3-3.53c1.31-4.38,2.58-8.78,4-13.15.31-1-.16-1.12-.84-1.39-.91-.36-.8.38-.93.79-1,3.28-2,6.55-3,9.85-.25.86-.64,1-1.45.87a7.14,7.14,0,0,1-4.15-2.66,1.41,1.41,0,0,1-.19-1.82c1.49-2.69,2.92-5.41,4.37-8.12.22-.43.68-.91-.18-1.2-.56-.2-1-.65-1.49.3-2.08,4-4.41,8-6.4,12-2.8,5.72-8.94,4.12-11.36.54a1.54,1.54,0,0,1,0-2c3.26-4.78,6.46-9.61,9.66-14.44.27-.39.88-.79,0-1.31-.72-.43-1.08-.47-1.59.31-4,6.06-8.15,12-12.09,18.13-3,4.7-8.55,4-11.41.75-1.42-1.62-1.44-2.44-.09-4.07,5.35-6.51,10.68-13,16.07-19.52.69-.85.44-1.2-.32-1.68-.45-.29-.66-.18-1,.19q-7.7,9.4-15.42,18.8c-2.76,3.37-5.51,6.74-8.3,10.08-1.85,2.21-5.67,2.51-8.33.72a6.29,6.29,0,0,1-2.17-7.76,4.22,4.22,0,0,1,.93-1.08q13-13,26-25.93c.65-.65.8-1,0-1.63-.54-.4-.76-.27-1.14.12q-3.28,3.33-6.61,6.62-12.85,12.82-25.7,25.67c-1.92,1.93-4.11,2.82-6.72,1.88a6.92,6.92,0,0,1-4.79-6,5.34,5.34,0,0,1,1.35-4.1c.28-.34.59-.65.9-1q16-16,32-32.1c.38-.38,1-.66.37-1.43s-.91-.7-1.55,0Q66.18,245.28,54.46,257a12.62,12.62,0,0,1-4.88,3.36,6.44,6.44,0,0,1-5.89-11.23c9.49-7.63,18.92-15.34,28.36-23a1.13,1.13,0,0,0-.12-2c-.43-.29-.58.12-.78.29Q61,232.6,50.86,240.84c-1.67,1.35-2,1.36-3.57-.11-2.87-2.7-3.65-8.13.93-11.11,6.13-4,12.14-8.12,18.22-12.17.56-.38.92-.62.44-1.38s-.72-.73-1.38-.29c-4.69,3.18-9.42,6.32-14.13,9.47-1.51,1-1.51,1-3-.16-2.87-2.3-3.51-6.53-1.36-9.05a7.19,7.19,0,0,1,2.19-1.64q6.1-3.3,12.22-6.58c.55-.3.91-.49.57-1.24s-.61-.92-1.39-.49c-2.68,1.5-5.42,2.9-8.11,4.39a1.13,1.13,0,0,1-1.63-.24,6.48,6.48,0,0,1-2-4.5,1.14,1.14,0,0,1,1-1.33c2.92-.83,5.82-1.72,8.71-2.64.42-.13,1.34.09,1-1-.29-.83-.58-1.1-1.51-.81-4.33,1.36-8.68,2.65-13,3.93-2.21.65-4.35.66-6.15-1.08-2-1.93-2.42-4.31-2-6.94.12-.78.68-.89,1.28-1l17.13-3.4c.49-.09,1.21.06,1-.91-.19-.76-.45-1.16-1.36-1q-8.58,1.78-17.18,3.48c-1.6.32-3.21.6-4.83.86a6.76,6.76,0,0,1-7.8-5.56,7.09,7.09,0,0,1,.16-3.54,1,1,0,0,1,1-.8l23.7-2.4c1.19-.13,2.37-.31,3.57-.41.62,0,.65-.4.44-.8s.25-1.17-.7-1.07l-11.66,1.18c-3.52.36-7,.76-10.57,1.11-4.53.46-9.06.8-13.57,1.36-4.84.61-8.38-2.78-7.74-7.6.38-2.86,3.33-5.25,6.54-5.25,11.75,0,23.5,0,35.25,0,1.1,0,1.23-.4,1.14-1.32s-.69-.62-1.14-.62H24.15c-6,0-12,0-18,0a5.9,5.9,0,0,1-6-5,6.63,6.63,0,0,1,3.58-7.61,8.17,8.17,0,0,1,3.06-.43c14.82-.23,29.65-.08,44.47-.14.49,0,1.22.39,1.36-.65s-.32-1.23-1.26-1.23c-13.07,0-26.14,0-39.21.05A2.63,2.63,0,0,1,9.75,152a7.54,7.54,0,0,1-1-7.27,4.64,4.64,0,0,1,4.62-3.16c3.52,0,7,.57,10.5.85,3.22.25,6.43.56,9.65.86l12,1.12c2.46.22,4.93.37,7.39.65.91.1.7-.56.84-1s.06-.83-.58-.89c-2.1-.18-4.21-.41-6.31-.6q-9.66-.89-19.32-1.74a2.4,2.4,0,0,1-2.05-1.6,6.8,6.8,0,0,1,.92-7.21,6.27,6.27,0,0,1,6.65-2.56q11,2.11,21.89,4.33c.89.18,1-.17,1.2-.8s-.1-.94-.78-1.07c-5.76-1.13-11.49-2.32-17.25-3.41A1.42,1.42,0,0,1,36.8,127a9.2,9.2,0,0,1,.16-3.09c1-3.9,4.1-5.66,7.95-4.52q6.47,1.93,12.91,3.91c.85.26,1.47.41,1.78-.74s-.69-.9-1.12-1c-3.08-1-6.17-1.92-9.28-2.79a1.31,1.31,0,0,1-1.13-1.7,7,7,0,0,1,2.54-4.47c.52-.46,1-.2,1.41,0l8.55,4.58c.45.24.9.76,1.33-.14.36-.75.34-1.14-.48-1.57-4.06-2.13-8.07-4.36-12.13-6.49-2.16-1.13-3.59-2.74-3.55-5.24a7.27,7.27,0,0,1,3.67-6.23c.64-.41,1-.05,1.48.26q7.28,4.85,14.54,9.73c.75.51,1.06.44,1.52-.34s0-1-.49-1.26l-14-9.38-4.55-3.11c-5-3.41-2.81-10.07.88-11.83a1.26,1.26,0,0,1,1.59.18C57.16,87.39,64,92.94,70.85,98.53c.68.57,1.17.9,1.73-.13.26-.49.27-.68-.18-1.05Q62.17,89.06,52,80.71c-3.16-2.57-6.34-5.11-9.44-7.76-1.85-1.58-2-3.76-1.5-6a5.82,5.82,0,0,1,4.67-4.76,7.05,7.05,0,0,1,6.75,2.17Q65.16,77,77.8,89.75c.89.89,1.23.49,1.78-.18.25-.31.3-.52,0-.8s-.45-.45-.68-.67Q63.12,72.34,47.36,56.56a5.89,5.89,0,0,1-1-7.65,6.71,6.71,0,0,1,7.56-3.24,7.07,7.07,0,0,1,2.87,1.88Q72.57,63.33,88.35,79.09c.37.37.63,1,1.41.35s.69-1,0-1.63c-9.12-9.07-18.2-18.19-27.33-27.26a3,3,0,0,1-1-2.64A7.53,7.53,0,0,1,66.6,41.7,5,5,0,0,1,72,43.43q11.24,13.5,22.42,27c.69.83,1.46,1.6,2.07,2.48s1,.21,1.53-.09c.67-.41.28-.75,0-1.13-5.39-6.48-10.75-13-16.18-19.44a2.64,2.64,0,0,1-.39-3A6.8,6.8,0,0,1,87.16,45a6.25,6.25,0,0,1,6.45,3l9.64,14.45c.84,1.26,1.72,2.5,2.51,3.8.46.75.8,1.12,1.72.51s.22-1.09-.07-1.52c-3.15-4.76-6.3-9.52-9.53-14.24a1.6,1.6,0,0,1,0-2.12c2.42-3.55,8.49-5,11.19.47,2,4.09,4.3,8,6.4,12.06.45.87.87.76,1.59.44.92-.4.37-.88.14-1.31-1.36-2.58-2.71-5.16-4.13-7.71a1.06,1.06,0,0,1,.26-1.54,6.72,6.72,0,0,1,4.44-1.81,1.14,1.14,0,0,1,1.35,1c.77,2.77,1.65,5.5,2.5,8.24.15.48.07,1.21,1,.85.7-.28,1.15-.49.84-1.45-1.41-4.44-2.73-8.92-4.08-13.39a5.54,5.54,0,0,1,1.29-6,7.42,7.42,0,0,1,7-1.83c.6.11.69.52.79,1,1.14,5.78,2.32,11.57,3.47,17.36.11.58.13,1.13,1,.89.68-.19,1.11-.37.93-1.27Q131.65,44,129.51,33.1a6.21,6.21,0,0,1,2.31-6.51,6.92,6.92,0,0,1,7-1.3,2.22,2.22,0,0,1,1.73,2.11c.46,5.57,1,11.13,1.56,16.69.28,2.9.54,5.8.81,8.7.06.71.21,1.19,1.15,1s.89-.6.82-1.34c-.55-5.4-1-10.81-1.57-16.21q-.81-8.46-1.62-16.92c-.13-1.43-.29-2.86-.32-4.29a5,5,0,0,1,4.37-5.3,7.73,7.73,0,0,1,6.41,1.62,2.65,2.65,0,0,1,1.08,2.25c0,12.59,0,25.18,0,37.77,0,1.15.39,1.37,1.38,1.21.48-.07.73-.26.7-.76,0-.32,0-.64,0-1V6.4c0-2.93,1.24-4.9,3.67-5.86A7.17,7.17,0,0,1,166.68,2a6.06,6.06,0,0,1,1.54,4.29q0,22.53,0,45.08c0,1,.37,1.29,1.3,1.25.55,0,.7-.22.67-.71,0-.32,0-.64,0-1,0-12.59,0-25.18,0-37.77a3.53,3.53,0,0,1,1.4-3,7.56,7.56,0,0,1,7.66-1.3,4.74,4.74,0,0,1,3.17,5.1c-.17,2.87-.48,5.73-.76,8.59-.43,4.53-.91,9.05-1.35,13.58-.52,5.52-1,11-1.56,16.56-.09.9.3,1,.95,1.09s1-.24,1-.91q1-10.48,2-21c.16-1.71.35-3.42.47-5.13a1.45,1.45,0,0,1,.94-1.27,6.72,6.72,0,0,1,7.22.81A6,6,0,0,1,194,32.57c-1.12,6.08-2.37,12.14-3.57,18.2-.28,1.45-.51,2.91-.86,4.34-.25,1,.5.89,1,1.07.65.23.82-.16.93-.71,1.12-5.71,2.28-11.42,3.35-17.13.2-1.06.64-1.52,1.69-1.57a9.26,9.26,0,0,1,3.55.33,5.78,5.78,0,0,1,4,7.47c-1.3,4.52-2.72,9-4.09,13.51-.17.58-.37,1.05.51,1.37s1.12.09,1.36-.73c.93-3.26,2-6.49,2.9-9.75.24-.82.62-1.07,1.45-.92a7.22,7.22,0,0,1,4.5,3.13c.35.46.1.81-.11,1.2q-2.21,4.13-4.4,8.24c-.22.42-.75.86.13,1.21.63.25,1.1.67,1.61-.31,2.06-4,4.24-8,6.34-12,2.57-4.86,8.12-5.19,11.31-.66a1.53,1.53,0,0,1,0,2c-3.25,4.79-6.45,9.62-9.66,14.44-.32.47-.85.88.05,1.42s1.1.35,1.58-.38c4.07-6.16,8.23-12.27,12.28-18.45,3-4.63,9.27-3.53,11.77.39a2.18,2.18,0,0,1-.22,3c-5.5,6.6-10.92,13.26-16.35,19.91-.27.33-1,.63-.21,1.21.62.46,1.05.81,1.74,0,5.62-6.92,11.28-13.79,16.93-20.68q3.2-3.89,6.38-7.78a6.06,6.06,0,0,1,6.74-1.73A6.15,6.15,0,0,1,261,47.48a5.61,5.61,0,0,1-1.74,4.73c-8.56,8.46-17,17-25.56,25.48-.76.75-.84,1.18,0,1.81.42.3.67.35,1,0a6.14,6.14,0,0,1,.51-.51q16.11-16.11,32.22-32.22a5.88,5.88,0,0,1,7.84-.88,6.68,6.68,0,0,1,3,7.66,7.54,7.54,0,0,1-2,2.83l-32,32c-.4.4-1,.67-.27,1.42s.92.65,1.54,0q11.85-11.9,23.75-23.72a10.91,10.91,0,0,1,5-3.18,6,6,0,0,1,7.1,3c1.18,2.24,1.33,6-1.38,8.15-9.58,7.66-19.06,15.43-28.59,23.15-.56.45-.92.73-.36,1.51s.83.6,1.38.15c3.09-2.53,6.2-5,9.3-7.56,3.88-3.15,7.76-6.28,11.61-9.46a1.18,1.18,0,0,1,1.59-.12c3.9,2.32,5.23,8.63.57,11.73q-9.28,6.18-18.54,12.37c-.56.37-.91.63-.46,1.4s.75.77,1.43.31c4.83-3.26,9.7-6.47,14.52-9.74a1.43,1.43,0,0,1,1.91,0,7.06,7.06,0,0,1,3.19,7c-.27,2-1.63,3.21-3.32,4.12-4.11,2.21-8.21,4.44-12.33,6.62-.69.37-.76.67-.45,1.36s.63.71,1.25.37c2.7-1.47,5.43-2.88,8.12-4.37a1.2,1.2,0,0,1,1.75.26,6.51,6.51,0,0,1,1.92,4.5,1.08,1.08,0,0,1-.94,1.25c-3,.88-6,1.82-9,2.75-.43.13-1,.13-.68.89.26.55.22,1.22,1.26.89,4.25-1.34,8.54-2.55,12.8-3.86,5.23-1.61,9.13,1.45,8.78,6.92-.11,1.63-.26,1.78-1.82,2.09-5.64,1.11-11.26,2.24-16.9,3.34-.52.11-1.07.05-.75.9.23.6.17,1.15,1.2.93,7.25-1.48,14.53-2.83,21.79-4.3,5.24-1.06,9.13,3.69,8.14,8.66a1.5,1.5,0,0,1-1.56,1.3c-8.85.86-17.71,1.77-26.56,2.66-.47,0-.93.06-.79.72s0,1.28.95,1.18l8.2-.82c3.49-.36,7-.74,10.46-1.09,5.4-.55,10.81-1,16.19-1.64,3-.37,5.67-.13,7.46,2.71a6.16,6.16,0,0,1,.42,6.58,6.27,6.27,0,0,1-5.78,3.43q-17.62,0-35.25,0c-.67,0-1.39-.17-1.28,1,.06.74.31.93,1,.91,1.64,0,3.28,0,4.92,0q20.07.07,40.16.14c3.34,0,5.39,1.51,6.25,4.49a6.87,6.87,0,0,1-2.6,7.63,6.66,6.66,0,0,1-3.67.9H272c-.55,0-1.17-.23-1.23.79s.21,1.15,1.13,1.15c13.11,0,26.22,0,39.33-.05a2.59,2.59,0,0,1,2.32,1.15,7.49,7.49,0,0,1,1.09,7.36,4.89,4.89,0,0,1-5.2,3.24c-2.94-.19-5.88-.52-8.82-.79-4.09-.37-8.18-.73-12.27-1.11-3.93-.36-7.86-.74-11.78-1.11-2-.19-4-.35-6-.57-.89-.09-.92.45-1,1.1s.36.79.92.84c8.51.79,17,1.6,25.51,2.36a2.19,2.19,0,0,1,1.76,1.42c2,3.63-.52,9-4.62,9.89a8.13,8.13,0,0,1-3.44-.08q-10.61-2.09-21.19-4.21c-.87-.18-1.18.11-1.39.94-.25,1,.48.83.94.93,5.71,1.14,11.41,2.28,17.13,3.38a1.49,1.49,0,0,1,1.39,1.46,7.71,7.71,0,0,1-1.58,6,5.47,5.47,0,0,1-6.18,1.75c-4.55-1.3-9.08-2.7-13.62-4-.5-.15-1-.44-1.3.41s-.24,1.14.67,1.4c3.26.92,6.49,2,9.75,2.89a1.18,1.18,0,0,1,1,1.55,7.11,7.11,0,0,1-2.4,4.42,1.09,1.09,0,0,1-1.47.16c-2.91-1.58-5.84-3.13-8.76-4.68-.42-.22-.86-.7-1.19.15-.24.61-.57,1.07.33,1.54,3.86,2,7.67,4.09,11.49,6.16a14.22,14.22,0,0,1,2.25,1.37c2.58,2.1,2.72,6,.36,8.78l-.08.09c-1.83,2.06-2.26,2.12-4.52.61l-13.45-9c-.37-.24-.76-.87-1.22,0-.34.61-.7,1,.18,1.62,6.16,4.07,12.24,8.27,18.43,12.3,4.89,3.18,3.43,9.39-.07,11.71a1.79,1.79,0,0,1-2.52-.11c-6.74-5.57-13.54-11.08-20.33-16.59-.37-.3-.72-1-1.3-.14-.4.6-.71,1,.09,1.6,6.72,5.41,13.39,10.87,20.08,16.33,3.18,2.6,6.37,5.19,9.54,7.81,1.76,1.46,2.27,4.09,1.38,6.74a6.09,6.09,0,0,1-5.19,4.19,7.73,7.73,0,0,1-6.25-2.46q-12.58-12.59-25.16-25.2c-.69-.68-1.08-.71-1.65.06a.68.68,0,0,0,.1,1.09c1.26,1.22,2.49,2.48,3.74,3.72q14,14,28,28.08c2,2,2.81,4.18,1.73,6.83a6.85,6.85,0,0,1-6.18,4.59,5.91,5.91,0,0,1-4.67-2.06q-15.79-15.81-31.64-31.6c-.33-.32-.54-1-1.32-.45s-.8,1-.07,1.72c9.18,9.13,18.32,18.31,27.5,27.44a2.33,2.33,0,0,1,.81,2.11,7.44,7.44,0,0,1-4.62,6.35c-2.25.95-4.22.39-6.07-1.76-2.33-2.69-4.56-5.45-6.84-8.19q-8.61-10.35-17.26-20.69c-.29-.35-.46-1.14-1.26-.68s-1.12.78-.36,1.69c5.4,6.42,10.72,12.9,16.11,19.33a2.39,2.39,0,0,1,.46,2.53c-1,2.91-3.22,4.3-6.1,4.68a6.15,6.15,0,0,1-6.2-3L217.48,257c-.34-.51-.58-1-1.38-.5s-.74.75-.28,1.43c3.25,4.8,6.43,9.63,9.68,14.42a1.64,1.64,0,0,1,0,2.14c-2.05,3-6.34,4.08-9.06,2.19a6.85,6.85,0,0,1-2-2.48c-2.19-4.07-4.42-8.13-6.56-12.23-.45-.87-.84-.78-1.57-.46-.91.41-.37.87-.13,1.31,1.36,2.57,2.72,5.15,4.13,7.7a1,1,0,0,1-.25,1.53,7.37,7.37,0,0,1-2.54,1.54c-2.22.74-2.94.35-3.6-1.85-.71-2.41-1.45-4.81-2.19-7.21-.14-.46-.17-1.08-1-.69-.59.29-1.1.38-.81,1.3,1.35,4.29,2.49,8.65,3.93,12.91,2,6-2.94,9.11-7.4,8.61a1.64,1.64,0,0,1-1.62-1.53c-1.09-5.72-2.24-11.43-3.37-17.14-.1-.5-.06-1.05-.93-.8s-1.13.41-.95,1.27q1.5,7.31,2.93,14.62c.49,2.46.9,4.94,1.42,7.39.84,4-2.22,7.49-6.2,8a8.11,8.11,0,0,1-2,0c-2.07-.28-2.68-1.05-2.87-3.1-.59-6.44-1.22-12.87-1.84-19.3-.18-1.91-.37-3.82-.54-5.73,0-.46,0-.93-.71-.69-.49.17-1.31-.18-1.21.87q.57,5.4,1.1,10.82t1,10.95c.44,4.85.63,9.73,1.35,14.53.91,6-4.31,8-8.43,6.56a7.18,7.18,0,0,1-1.71-.85,3.57,3.57,0,0,1-1.76-3.25c.08-12.39,0-24.78,0-37.17,0-1.44,0-1.42-1.36-1.22-.47.07-.62.25-.59.68s0,.64,0,1v44.72a6,6,0,0,1-5.51,6.16c-3.51.42-6.44-1.37-7.3-4.44a6.29,6.29,0,0,1-.17-1.78v-22.3Z"/><path class="cls-2" d="M161.74,59.31c55.85,0,100.22,44.32,102.23,98.05,1.08,28.81-8.29,54-28.15,74.89-19,20-42.55,30.64-70.08,31.71a102.37,102.37,0,1,1-4-204.65Z"/><path class="cls-3" d="M193.77,205.59a5.76,5.76,0,0,1-.4-.74c-1.21-3.36-3.52-5.87-6-8.33-8.31-8.19-16.53-16.48-24.77-24.75-.6-.6-.89-.7-1.56,0q-14,14.12-28.13,28.16c-1.16,1.17-1.51,2.78-2.31,4.15a5.27,5.27,0,0,1-.86,1.49c-2.21-2.21-4.4-4.42-6.62-6.6-.48-.46-.25-.7.1-1,1.57-1.54,3.14-3.08,4.69-4.63q13.65-13.65,27.32-27.28c.69-.69.59-1,0-1.62Q142.43,151.68,129.73,139c-1-1-1.79-.95-2.9,0-2,1.65-2.55,4.1-3.74,6.2a10.42,10.42,0,0,0-.84,1.71c-.39,1.13-1,1.36-2.06.76a27.83,27.83,0,0,1-10.64-10.75c-.48-.85-.33-1.37.6-1.75s1.84-1,2.8-1.35c5.49-2.15,9.58-6.22,13.84-10.07a31.53,31.53,0,0,1,9.32-6.19,10.05,10.05,0,0,1,4.43-.87c.13.44-.25.57-.45.77q-3.18,3.18-6.38,6.33c-1.41,1.39-1.42,1.62-.06,3,.45.46.91.9,1.36,1.36,1,1,1,1.72.05,2.66-.79.77-.73,1.25.05,2q13,12.89,25.86,25.85c.59.59.88.73,1.56,0q13-13.06,26-26c.73-.72.67-1.16,0-1.83-1.06-1.1-1-1.73.07-2.85.53-.54,1.05-1.1,1.62-1.6.84-.75.82-1.41,0-2.2-2.27-2.2-4.49-4.44-6.73-6.67-.22-.21-.43-.44-.75-.79a9.41,9.41,0,0,1,5.07,1,35.08,35.08,0,0,1,9.7,6.71c1.93,1.74,3.82,3.52,5.79,5.21s4.64,2.77,7,4.06c1,.54,2.07,1,3.12,1.49.79.35,1,.79.59,1.6a20.38,20.38,0,0,1-3.67,5.15,23.89,23.89,0,0,1-7.23,5.82c-.89.43-1.34.29-1.75-.61-.84-1.85-1.8-3.65-2.66-5.49a8.73,8.73,0,0,0-2.18-2.82,1.72,1.72,0,0,0-2.65.09q-12.81,12.8-25.62,25.59c-.58.57-.63.88,0,1.48Q182,179.65,195.77,193.4c1.5,1.49,3,3,4.52,4.46.24.23.78.43.27.93Z"/><path class="cls-3" d="M247.8,180.68c-3.75,0-7.51.1-11.26,0a17.89,17.89,0,0,1-16.92-17.39c-.07-8,6.08-15.46,14.2-17.13a22.34,22.34,0,0,1,4.4-.45c7.15,0,14.3,0,21.45,0,.86,0,1.17.23,1.28,1.07a103.15,103.15,0,0,1,.61,24.58c-.28,2.82-.69,5.62-1.14,8.42-.13.8-.45,1-1.24,1-3.79,0-7.59,0-11.38,0Z"/><path class="cls-3" d="M75.37,180.72c-3.71,0-7.43,0-11.14,0-.78,0-1.12-.19-1.26-1a102.88,102.88,0,0,1-.49-33.13c.1-.67.32-.94,1.05-.94,7.47,0,15-.17,22.41.07a18.09,18.09,0,0,1,17.64,15.15,17.4,17.4,0,0,1-9.94,17.88A19.88,19.88,0,0,1,85,180.73C81.77,180.71,78.57,180.72,75.37,180.72Z"/><path class="cls-4" d="M63.2,143.51a27,27,0,0,1,1.27-6.61A99.44,99.44,0,0,1,93.89,87.84a97,97,0,0,1,50.3-24.9c29.57-5,56.36,1.76,79.9,20.32C242.63,97.88,254.38,117,259.66,140a11.25,11.25,0,0,1,.57,3.5,14.29,14.29,0,0,1-2.85.12c-.57-.16-.51-.67-.59-1.07a96.59,96.59,0,0,0-9.58-26.64A99.09,99.09,0,0,0,236,99.38,97.25,97.25,0,0,0,156.86,65,93.32,93.32,0,0,0,133.79,69,94.55,94.55,0,0,0,107,81.91a101,101,0,0,0-12.17,9.88,96.46,96.46,0,0,0-27.91,50.38c-.12.55-.07,1.24-.83,1.46A14.59,14.59,0,0,1,63.2,143.51Z"/><path class="cls-4" d="M256.69,182.85c3.18-.23,3.18-.23,2.43,2.8-8.79,35.61-36.48,64.16-72,73-35.17,8.75-66.61.74-93.56-23.53-15.33-13.81-25-31.14-29.72-51.26-.24-1,0-1.17.92-1.09s1.51.05,2.27.07a2.56,2.56,0,0,1,.48,1.33,94.32,94.32,0,0,0,7.55,20.93,97.52,97.52,0,0,0,46,44.65,95.16,95.16,0,0,0,29.52,8.33,90.84,90.84,0,0,0,14.46.66,99.1,99.1,0,0,0,24.64-4.06,96.24,96.24,0,0,0,27.12-13,106.07,106.07,0,0,0,10.41-8.27,96.75,96.75,0,0,0,28.76-48.32A5.27,5.27,0,0,1,256.69,182.85Z"/><path class="cls-5" d="M256.69,182.85a45.11,45.11,0,0,1-1.61,6.58,92.23,92.23,0,0,1-7.29,17.9,93.71,93.71,0,0,1-10.93,16.34,95.21,95.21,0,0,1-6.82,7.51,101,101,0,0,1-19,14.54A96.32,96.32,0,0,1,175,258.17a100.24,100.24,0,0,1-15,.91,107.19,107.19,0,0,1-11-.89,93.12,93.12,0,0,1-18.65-4.37A95,95,0,0,1,109.78,244a98.23,98.23,0,0,1-24.92-22.71,95.24,95.24,0,0,1-10.37-16.57,96.23,96.23,0,0,1-7.39-20.77,6.23,6.23,0,0,1-.08-1.06h2.16a29.87,29.87,0,0,1,1.41,4.93A95.85,95.85,0,0,0,90.1,223.86a94.52,94.52,0,0,0,58.61,31.83A94.81,94.81,0,0,0,254,184.16a2.62,2.62,0,0,1,.54-1.31Z"/><path class="cls-6" d="M96.45,179.69l2-1.4c.75-.28.87.31,1,.78.46,1.4.83,2.83,1.33,4.22a65,65,0,0,0,30,35.27,63.58,63.58,0,0,0,21.47,7.2,64.46,64.46,0,0,0,27.85-1.93A62.82,62.82,0,0,0,202.63,212,64.26,64.26,0,0,0,223.89,180c.18-.59,0-1.68,1.2-1.53l2.13,1.45a88.53,88.53,0,0,1-3.95,10.54,67.93,67.93,0,0,1-29.7,31.22,67.74,67.74,0,0,1-77.74-10.1,67.46,67.46,0,0,1-19.37-31.68A1,1,0,0,1,96.45,179.69Z"/><path class="cls-7" d="M250.22,182.85h2.88c.37.44.14.92,0,1.37a93.35,93.35,0,0,1-14.58,32,92.05,92.05,0,0,1-11.2,13.09,93.11,93.11,0,0,1-26.93,18.28,99.15,99.15,0,0,1-21.8,6.79,88.43,88.43,0,0,1-22.07,1.4,94.24,94.24,0,0,1-77.41-49.12,96.7,96.7,0,0,1-8.53-22.07c-.15-.56-.46-1.15,0-1.71h1.44c.69,2.16,1.19,4.37,1.88,6.53A92.34,92.34,0,0,0,83.9,211a94.42,94.42,0,0,0,16.1,19.1,88.3,88.3,0,0,0,18.46,13,91,91,0,0,0,20.63,8,87.85,87.85,0,0,0,12.71,2.26,105.77,105.77,0,0,0,14.12.39c5.78-.2,11.55-.64,17.1-2.5,1.06-.31,2.13-.55,3.18-.88,1.49.19,2.79-.52,4.13-.95a18.12,18.12,0,0,0,4.85-1.92c1.24-.68,2.6-1.09,3.9-1.65.56-.24,1.1-.48,1.23-1.16a1.42,1.42,0,0,1,.87-.92,90.46,90.46,0,0,0,8-4.37.87.87,0,0,1,.45-.12c1,.6,1.69.24,2.5-.47,2.3-2,4.67-4,7-5.94a24.12,24.12,0,0,0,3-3.42c2.48-1.61,4.36-3.87,6.35-6a87.69,87.69,0,0,0,9.7-12.59,89.38,89.38,0,0,0,11.21-25.28A10.85,10.85,0,0,1,250.22,182.85Z"/><path class="cls-8" d="M225.09,178.5c-.79.17-.7.91-.85,1.43a64.38,64.38,0,0,1-4.7,11.74,63.57,63.57,0,0,1-8.5,12.51,64.85,64.85,0,0,1-53.5,22.49,63.14,63.14,0,0,1-19.78-4.5,65,65,0,0,1-31.7-27,65,65,0,0,1-6.89-16.11c-.11-.43-.22-.76-.72-.78l2.2-2a63,63,0,0,0,58.89,48.09c30.69,1,56.77-20.23,63.19-48Z"/><path class="cls-9" d="M225.54,147.6l-2.28,2c-3.18-15-10.56-27.37-22.46-36.87A62.8,62.8,0,0,0,132.91,106a62.78,62.78,0,0,0-32.75,43.71l-2-1.78a1.08,1.08,0,0,1,0-.81,64.13,64.13,0,0,1,10.56-23.32A65.07,65.07,0,0,1,135.42,102a63.23,63.23,0,0,1,19.13-5.14,59.44,59.44,0,0,1,8.84-.44,65.39,65.39,0,0,1,45.18,19.74,65,65,0,0,1,16.93,30.93A2.59,2.59,0,0,1,225.54,147.6Z"/><path class="cls-10" d="M183.41,133.38l-.48.5q-10.25,10.25-20.49,20.52c-.55.55-.82.47-1.32,0q-8.87-8.94-17.78-17.82c-.49-.49-.45-.75,0-1.21,1.41-1.35,2.8-2.73,4.15-4.15.53-.57.83-.56,1.38,0,4,4,8,8,11.92,12,.7.71,1.07.84,1.85,0,4.81-4.9,9.71-9.72,14.54-14.61.66-.67,1-.69,1.67,0,1.3,1.41,2.7,2.73,4.05,4.09C183.12,132.87,183.38,133,183.41,133.38Z"/><path class="cls-10" d="M196.51,151.91a6.46,6.46,0,0,0-.77.58c-4,4-8,8-12,11.93-.63.63-.66.93,0,1.57,4.9,4.88,9.74,9.8,14.64,14.69.62.61.78,1,0,1.65-1.42,1.28-2.75,2.67-4.08,4.06-.46.48-.72.5-1.21,0q-10.28-10.32-20.6-20.6c-.44-.44-.45-.68,0-1.13q9-8.91,17.89-17.87c.28-.28.53-.63,1-.18,1.57,1.6,3.16,3.17,4.74,4.76A3.93,3.93,0,0,1,196.51,151.91Z"/><path class="cls-11" d="M96.45,179.69c.47.28.53.78.66,1.23a65.71,65.71,0,0,0,10.75,21.46A67.2,67.2,0,0,0,127.58,220a66.27,66.27,0,0,0,23,8.38,59.61,59.61,0,0,0,13.66,1,70.59,70.59,0,0,0,23.61-5.21,68,68,0,0,0,18.08-11.23,66.44,66.44,0,0,0,15.44-19.27,64.42,64.42,0,0,0,5.22-12.8c.1-.34.1-.84.66-.87l1.69.9a4.12,4.12,0,0,1-.44,2.07,70.43,70.43,0,0,1-13.89,24.8,76.13,76.13,0,0,1-7.19,7.18,7.56,7.56,0,0,0-1,1.15,6.93,6.93,0,0,1-2,1.53c-2.57,1.54-5,3.33-7.58,4.81a70.44,70.44,0,0,1-27.59,9,63,63,0,0,1-8.24.45,71.16,71.16,0,0,1-23.87-4.61,58.36,58.36,0,0,1-8.6-3.91,6.68,6.68,0,0,0-2.18-1,3.42,3.42,0,0,1-1.43-.82c-2.88-2.18-5.9-4.16-8.65-6.5a12.25,12.25,0,0,0-2.31-2.24,71.87,71.87,0,0,1-15.28-20.95,59.65,59.65,0,0,1-3.78-9.94c-.11-.41-.37-.82-.06-1.26A4.2,4.2,0,0,1,96.45,179.69Z"/><path class="cls-12" d="M229.68,145.24l-2,.88c-.55-.21-.56-.74-.68-1.19a66.05,66.05,0,0,0-13.41-26.12,66.87,66.87,0,0,0-28.2-20,69.34,69.34,0,0,0-17.59-4,67.44,67.44,0,0,0-48.37,14.83,67.94,67.94,0,0,0-16.71,20,70.84,70.84,0,0,0-6.07,15.34c-.15.58-.11,1.48-1.18,1.26l-1.39-.66a1.68,1.68,0,0,1,0-1.5,70.36,70.36,0,0,1,12-24.6,68.94,68.94,0,0,1,20.53-18.09,70.27,70.27,0,0,1,20.95-8,4.55,4.55,0,0,0,1.22-.17c.47-.1.93-.24,1.4-.31a6.09,6.09,0,0,0,1.41-.15l.35-.07a6.14,6.14,0,0,0,1.41-.19,5.07,5.07,0,0,1,.54-.09,6.26,6.26,0,0,0,1.88-.18l.4-.06a25.11,25.11,0,0,0,4.16-.2,10.91,10.91,0,0,1,3,0,20.18,20.18,0,0,0,4,.18,2.47,2.47,0,0,1,.6.08,6.16,6.16,0,0,0,1.87.18,2.53,2.53,0,0,1,.55.09,6,6,0,0,0,1.4.19l.34.06a4.6,4.6,0,0,0,1.22.17A69.66,69.66,0,0,1,195,100.33a64.82,64.82,0,0,1,13.83,9.83,4.12,4.12,0,0,0,1.06.89A70.17,70.17,0,0,1,229.68,145.24Z"/><path class="cls-13" d="M70.62,182.85A28.53,28.53,0,0,0,72,188.39a92.28,92.28,0,0,0,6.26,15.88A96,96,0,0,0,89,220.84a98.28,98.28,0,0,0,9.3,9.94A93.83,93.83,0,0,0,133.17,251a104.2,104.2,0,0,0,15.54,3.58,88.71,88.71,0,0,0,18.69.81,92,92,0,0,0,26.49-5.56,93.42,93.42,0,0,0,22.25-11.68,91,91,0,0,0,13.11-11.27,93.28,93.28,0,0,0,13.51-17.84,94.35,94.35,0,0,0,8-17.84,63.71,63.71,0,0,0,2.3-8.38h1.44a27,27,0,0,1-1.28,5.32,99.67,99.67,0,0,1-11.31,25,96.26,96.26,0,0,1-16,19,91.89,91.89,0,0,1-17.71,12.71,97.16,97.16,0,0,1-24.3,9.49,85.4,85.4,0,0,1-11,1.88,101.17,101.17,0,0,1-10.58.67,105.72,105.72,0,0,1-15.07-1.13,86.26,86.26,0,0,1-16-3.89,95.45,95.45,0,0,1-27.5-14.69A92.94,92.94,0,0,1,94.43,229a96,96,0,0,1-25.1-44.9,5.68,5.68,0,0,1-.15-1.29Z"/><path class="cls-10" d="M178,191.82c-.22.24-.41.45-.6.64-1.36,1.36-2.75,2.69-4.06,4.09-.56.59-.87.64-1.47,0-3.08-3.14-6.23-6.21-9.29-9.36-.7-.71-1-.59-1.66,0-4.75,4.8-9.54,9.57-14.32,14.34-1.28,1.28-.95,1.23-2.25,0s-2.47-2.51-3.74-3.72c-.48-.46-.5-.75,0-1.24q10.27-10.23,20.51-20.51c.49-.49.78-.47,1.25,0q7.56,7.6,15.16,15.18C177.72,191.44,177.86,191.63,178,191.82Z"/><path class="cls-14" d="M151.91,92.91h-.24c-.45.31-1-.07-1.44.24a4.15,4.15,0,0,1-1.44.24c-.36.29-.84,0-1.2.24a71.65,71.65,0,0,0-17.53,6.16,70.11,70.11,0,0,0-14.54,9.94A68.2,68.2,0,0,0,98.9,131.81a59.72,59.72,0,0,0-4.82,13.71l-1.64-.61c-.29-.38-.08-.76,0-1.14a71.46,71.46,0,0,1,7.74-18.54,5.23,5.23,0,0,1,1.14-1.51,2.79,2.79,0,0,0,1.18-1.13c.81-1.39,2-2.56,2.58-4.08s1.9-2.71,2.92-4a11.86,11.86,0,0,1,2.3-2.23c1.77-1,3-2.66,4.36-4.11.16-.17.08-.46.1-.69.13-.76.8-1.08,1.3-1.5,1.18-1,2.42-2,3.67-2.88a4.12,4.12,0,0,0,2.94-1c1.22-.89,2.53-1.63,3.84-2.45-.43-.6-1.36-.42-1.6-1.17a1.08,1.08,0,0,1,.66-.93c1-.5,1.82-1.16,2.82-1.57.86.13,1.55.8,2.44.85a3.17,3.17,0,0,0,1.88,0,85.56,85.56,0,0,0,9-3.54c1.47-.59,2.85-1.4,4.38-1.85,1.19.32,2.29-.32,3.45-.32s2.3-.42,3.48-.39a3.32,3.32,0,0,0,1.25-.13,4.66,4.66,0,0,0,1.37-.56,3.91,3.91,0,0,1,2-.29c1.39.06,2.76-.12,4.14-.18a3.06,3.06,0,0,1,1.07.49,2.51,2.51,0,0,0,1.43.18,11.41,11.41,0,0,1,1.94.09,4.11,4.11,0,0,0,1.48.16,6,6,0,0,1,1,.08c.33,0,.64.26,1,.1-.08-.57-.76-1-.43-1.64,1.2-.86,2.36-.45,3.52.11.24.51-.13.82-.38,1.17s-.18.74.34.82c1.61.27,3.21.6,4.8,1,.58.14.95-.36,1.47-.4,2.9.87,5.84,1.63,8.66,2.76a3.49,3.49,0,0,1,1.18.57,2.47,2.47,0,0,0,1.6,1.59c1.07.42,2.08,1,3.11,1.52s1.16.48,1.18-.77c0-.2,0-.4,0-.6A1.13,1.13,0,0,1,195,96a2.23,2.23,0,0,1,2.38,1.06c.18.71-.36,1.09-.71,1.55s-.4.92.19,1.27c1.19.71,2.36,1.47,3.53,2.21a2.53,2.53,0,0,0,1.27.24c2.15,1,3.88,2.7,5.93,4.13a20.8,20.8,0,0,0,.1-3.83c-.07-2.8,0-5.59,0-8.39,0-.3.12-.59.44-.6s.39.34.45.6a6.49,6.49,0,0,1,.06,1.32c0,3.71,0,7.42,0,11.13a3.21,3.21,0,0,0,1.1,2.64c.8.72,1.53,1.52,2.3,2.27,1,.95,1,.94,1.94-.09a1.59,1.59,0,0,1,.56-.44c.45-.07.61.33.84.57,1.28,1.31,2.4,2.77,3.61,4.14a1.69,1.69,0,0,1,.51,1.06c-.08.6-.59.83-1,1.1s-.55.7-.17,1.17A20.73,20.73,0,0,1,220,121.6c.49.82,1,1.49,2.11,1.31a51.09,51.09,0,0,1,5.06,9.05,66.31,66.31,0,0,1,4,11.11,11.11,11.11,0,0,0,.64,1.4l-2.08.77a1.29,1.29,0,0,1-.55-.89,67.92,67.92,0,0,0-5.56-14.56,69.52,69.52,0,0,0-8.44-12.65c-1.76-2-3.64-4-5.43-6-.34-.22-.62-.51-1-.72a72.58,72.58,0,0,0-12.55-9.07,70.68,70.68,0,0,0-14.83-6.29c-2.67-.79-5.4-1.32-8.11-1.91-.36-.29-.84,0-1.2-.24h-.24c-.44-.31-1,.07-1.44-.23h-.48c-.61-.34-1.31.07-1.92-.24h-.48c-1.34-.34-2.73.08-4.07-.24H160.3a17.26,17.26,0,0,1-3.05.11c-.42,0-.86-.11-1.27.13h-.24c-.61.31-1.31-.1-1.92.24h-.48C152.9,93,152.35,92.6,151.91,92.91Z"/><path class="cls-10" d="M129.53,143.57a1.73,1.73,0,0,1,1,.69L148,161.7c1,1,1.9,2,2.89,2.87.5.47.64.76.07,1.33q-6.23,6.15-12.37,12.36c-.48.49-.77.49-1.24,0-1.35-1.42-2.72-2.81-4.15-4.15-.6-.56-.65-.87,0-1.47,2.27-2.19,4.45-4.47,6.72-6.66.6-.58.6-.9,0-1.48-4.94-4.89-9.83-9.83-14.77-14.72-.63-.63-.75-1,0-1.65,1.38-1.26,2.67-2.63,4-4A4.43,4.43,0,0,0,129.53,143.57Z"/><path class="cls-15" d="M78.05,182.85h5.51a2.08,2.08,0,0,1,.52,1.06,81.82,81.82,0,0,0,16.8,31,82.75,82.75,0,0,0,8,7.94c.29.26.66.46.73.91-1,1.64-1.72,3.44-3.48,4.46a49.55,49.55,0,0,1-7.15-6.5,90.73,90.73,0,0,1-10.21-13.11,89.13,89.13,0,0,1-10.8-24.42A1.27,1.27,0,0,1,78.05,182.85Z"/><path class="cls-16" d="M78.05,182.85a31.45,31.45,0,0,0,2,7.21,92.34,92.34,0,0,0,5,11.6,91.34,91.34,0,0,0,16.87,22.66c1.38,1.32,2.89,2.48,4.19,3.87a5.9,5.9,0,0,1-2.7,3.47c-1.53-.54-2.52-1.81-3.64-2.85a91.14,91.14,0,0,1-16.9-21.16,89.81,89.81,0,0,1-9.45-23.1c-.14-.56-.41-1.15.06-1.7Z"/><path class="cls-6" d="M95.47,146.18c.61-.08.69-.54.81-1a65.7,65.7,0,0,1,11.4-23.87,72,72,0,0,1,12.81-13,66.55,66.55,0,0,1,25-12.18,59.75,59.75,0,0,1,12.22-1.85c1.86-.08,3.74-.24,5.6-.17A71.78,71.78,0,0,1,181.16,97a68.56,68.56,0,0,1,18.51,8.74,65.51,65.51,0,0,1,12.48,10.89,66.45,66.45,0,0,1,15.31,28.93,2.87,2.87,0,0,0,.22.55l-1.14.78c-.7,0-.64-.61-.74-1A63.19,63.19,0,0,0,220,130.83a64.88,64.88,0,0,0-10.33-14.34,65.68,65.68,0,0,0-17.61-13.29,64.33,64.33,0,0,0-20.55-6.61,66.08,66.08,0,0,0-73.72,49.26c-.13.49,0,1.19-.82,1.25A5.42,5.42,0,0,1,95.47,146.18Z"/><path class="cls-16" d="M250.22,182.85a30.59,30.59,0,0,1-1.73,6.67,89.46,89.46,0,0,1-11.93,24.25,98,98,0,0,1-12.85,14.89,8,8,0,0,1-1.52.94.5.5,0,0,1-.14-.55,10,10,0,0,0,.15-5.52,7.93,7.93,0,0,1,1.83-2.31A85.36,85.36,0,0,0,245,184a2.19,2.19,0,0,1,.42-1.1Z"/><path class="cls-17" d="M245.42,182.85a18.94,18.94,0,0,1-1.26,5.07,87.14,87.14,0,0,1-14.22,27,49,49,0,0,1-5.42,6.19c-.76.7-1.22,1.68-2.12,2.24-.12,0-.27,0-.31-.07-.66-1.52-1.82-2.75-2.51-4.25a3.77,3.77,0,0,1,1.36-2.18A76.46,76.46,0,0,0,233.2,199.7a78.92,78.92,0,0,0,6.31-15.6,2.13,2.13,0,0,1,.64-1.25Z"/><path class="cls-6" d="M97,147.1a18.17,18.17,0,0,0,1.36-4.27,65.81,65.81,0,0,1,7.23-16.07,63.86,63.86,0,0,1,9.3-11.76,66.36,66.36,0,0,1,19.85-13.66,69.48,69.48,0,0,1,16.75-5,59,59,0,0,1,13.92-.74,66.54,66.54,0,0,1,39.53,15.94,65.82,65.82,0,0,1,17.24,22.92,62.28,62.28,0,0,1,4,11.73c.06.26,0,.56.33.72a2.52,2.52,0,0,1-1,.7c-.89-1.28-.95-2.84-1.37-4.27a65.44,65.44,0,0,0-6.69-15.14A63.45,63.45,0,0,0,207,115.07a65.66,65.66,0,0,0-19.34-12.94,64.38,64.38,0,0,0-15.87-4.59,59.92,59.92,0,0,0-12.48-.77,65.72,65.72,0,0,0-23.44,5.39,64.31,64.31,0,0,0-15,9.2,66.19,66.19,0,0,0-13.33,14.72,63.42,63.42,0,0,0-8.84,20.26,14.59,14.59,0,0,1-.52,1.58A3.2,3.2,0,0,1,97,147.1Z"/><path class="cls-7" d="M73.49,182.85a16.09,16.09,0,0,0,.88,3.93A85.05,85.05,0,0,0,79,199.42a87.66,87.66,0,0,0,7.36,13.23,91,91,0,0,0,13.95,16.26,14.1,14.1,0,0,0,3.22,2.63,14.17,14.17,0,0,0,2.85,2.33c1.87,1.42,3.78,2.77,5.65,4.19a16.05,16.05,0,0,0,5.17,2.65,69.47,69.47,0,0,0,10,5c.33.14.69.22.85.59a1.14,1.14,0,0,0,.88,1c1.11.43,2.28.71,3.38,1.17.81.34,1.12-.38,1.66-.6a39.94,39.94,0,0,1,6.53,1.79,2.54,2.54,0,0,0,2.36,1.69c.91.13,1.82.28,2.71.48.55.13,1,.05,1.07-.59a.78.78,0,0,1,.68-.6c1.6,0,3.24-.08,4.68.88-.15.92.16,1.34,1.17,1.34.74,0,1.49.13,2.24.18a3.43,3.43,0,0,0,2.93-.83,93.28,93.28,0,0,0,9.46-.19,2.78,2.78,0,0,0,3.18.83,6.49,6.49,0,0,1,1.65-.12c.94,0,1.55-.35,1.57-1.39a14,14,0,0,1,5.75-.81,1.37,1.37,0,0,0,1.83.74,1.11,1.11,0,0,1,1.3.18,39.08,39.08,0,0,1-9.14,1.94,100.15,100.15,0,0,1-16.69.64A81.94,81.94,0,0,1,141,251.84a91,91,0,0,1-38-18.72,97.66,97.66,0,0,1-10-9.61,90.39,90.39,0,0,1-11.21-15.4,86.18,86.18,0,0,1-7.47-16.53c-1-2.84-2.16-5.66-2.27-8.73Z"/><path class="cls-18" d="M109.46,223.81c-2.08-1.91-4.25-3.71-6.17-5.79a86,86,0,0,1-12.6-17.28,87.5,87.5,0,0,1-7-17.3,4,4,0,0,1-.08-.59l2.86,0c.88-.33,1.32,0,1.58.88a77.14,77.14,0,0,0,9.16,19.85,66.29,66.29,0,0,0,8.47,10.84,71.5,71.5,0,0,0,5.58,5.43,1.47,1.47,0,0,1,.64,1.1A4.61,4.61,0,0,1,109.46,223.81Z"/><path class="cls-18" d="M240.15,182.85a71.12,71.12,0,0,1-5.6,15,79.38,79.38,0,0,1-11,16.69,37.7,37.7,0,0,0-3.42,3.83,1.35,1.35,0,0,0-.35.73c-1.41-.46-2.16-1.65-3-2.73-.06-.56.33-.88.65-1.22a77.39,77.39,0,0,0,14.13-20.53,82.25,82.25,0,0,0,4.13-10.86c.13-.41.06-1.16.91-.89Z"/><path class="cls-19" d="M257.18,143.46l3.05,0c-.38.32-.84.15-1.26.15-8,.07-16-.14-24,.11-.89.26-1-.43-1.16-1a80.29,80.29,0,0,0-3-9.06,78.45,78.45,0,0,0-5.5-10.86,3.33,3.33,0,0,1-.81-1.82,9.42,9.42,0,0,1,4.81-3,28.4,28.4,0,0,1,3.61,5.88,76.1,76.1,0,0,1,7,18,1.41,1.41,0,0,0,1.65,1.29c1.63-.06,3.26,0,4.9,0s3,0,4.52,0c.87,0,1.74,0,2.61,0a11.45,11.45,0,0,1,1.31,0A4.16,4.16,0,0,1,257.18,143.46Z"/><path class="cls-20" d="M111.65,221a1.37,1.37,0,0,0-.6-1,76.33,76.33,0,0,1-19.56-26.17,70.67,70.67,0,0,1-3.77-10.05c-.23-.79-.56-1.06-1.3-1l3.54-.51c.87-.07.88.68,1.05,1.2.95,2.83,1.9,5.67,3.13,8.4a73.15,73.15,0,0,0,12,18.75,69.47,69.47,0,0,0,6.75,6.76,1.78,1.78,0,0,1,.73,1.06A3.4,3.4,0,0,1,111.65,221Z"/><path class="cls-19" d="M63.2,143.51l3.1,0a4.25,4.25,0,0,1,2.31-.29h.44c.94,0,1.89,0,2.83,0,1.79,0,3.58-.06,5.37,0,1.06,0,2.12,0,3.19,0,1.23,0,2.64.46,3.63-.18s.85-2.15,1.19-3.27a83.43,83.43,0,0,1,9.44-20.85.4.4,0,0,1,.44-.11,11.84,11.84,0,0,1,3.91,3,7.75,7.75,0,0,1-1.44,2.72,74.8,74.8,0,0,0-7.71,18.85,1.17,1.17,0,0,1-.35.74c-8.35-.78-16.73-.18-25.09-.37C64,143.65,63.59,143.82,63.2,143.51Z"/><path class="cls-21" d="M113.54,218.53a24.87,24.87,0,0,0-3.13-2.94A74.25,74.25,0,0,1,90.76,183.7c-.16-.5-.16-1.14-.8-1.38l3-.91a3.51,3.51,0,0,1,.73,1.62,72,72,0,0,0,10.4,20.76,79.08,79.08,0,0,0,10.52,11.57c.32.3.72.52.79,1C115,217.31,114.67,218.25,113.54,218.53Z"/><path class="cls-22" d="M230.79,181.64l2.65.74c.32.43.05.85-.07,1.25a73.09,73.09,0,0,1-8.47,18.42,84.14,84.14,0,0,1-10,12.64,1.37,1.37,0,0,1-.46.37,33.2,33.2,0,0,1-3.44-.68c-.41-.83.31-1.24.72-1.69,1.34-1.47,2.79-2.84,4.1-4.35a71.55,71.55,0,0,0,8.3-11.84A70.19,70.19,0,0,0,230,182.9C230.1,182.43,230,181.72,230.79,181.64Z"/><path class="cls-20" d="M214.49,214.93A11.24,11.24,0,0,1,216.9,212a77.32,77.32,0,0,0,10.21-14.34,73.25,73.25,0,0,0,6.33-15.3l3.13.45c-.42,0-.43.34-.53.66a83.49,83.49,0,0,1-5.75,14.27,80.11,80.11,0,0,1-8.93,13.35,48.43,48.43,0,0,1-4.06,4.53,1,1,0,0,0-.41.7A3.42,3.42,0,0,1,214.49,214.93Z"/><path class="cls-23" d="M230.79,181.64c-.79,2.19-1.54,4.4-2.4,6.57a70,70,0,0,1-16.23,24.43,17.76,17.76,0,0,0-1.27,1.57,32.11,32.11,0,0,1-4.77,1.77,11.2,11.2,0,0,1,2.86-3,60.46,60.46,0,0,0,9.09-10.22,65.23,65.23,0,0,0,10.39-20.93,6.61,6.61,0,0,1,.45-1C229.44,181.36,230.24,181.21,230.79,181.64Z"/><path class="cls-22" d="M224.57,121.05c1.18,2.11,2.42,4.2,3.55,6.33a73.51,73.51,0,0,1,6,15.42c.14.49.2.94.83,1l-3.17.7c-.65,0-.73-.54-.85-1A69.58,69.58,0,0,0,222,123.23a1.2,1.2,0,0,1-.08-.35A3.26,3.26,0,0,1,224.57,121.05Z"/><path class="cls-21" d="M89.55,144c.13-2.22,1-4.24,1.7-6.31a59.64,59.64,0,0,1,4.09-9.8c1.1-2.12,2.37-4.14,3.57-6.21a3.21,3.21,0,0,1,2.67,2.12A31.66,31.66,0,0,0,97.94,130a67,67,0,0,0-4.2,10.5c-.47,1.47-.87,3-1.3,4.45Z"/><path class="cls-23" d="M94.82,180.64a67.58,67.58,0,0,0,11.92,23.74,54.15,54.15,0,0,0,8.63,9.21c.44.36,1,.71,1,1.39s-.25.78-.77.76a69.45,69.45,0,0,1-7.08-7,68.26,68.26,0,0,1-11.08-16.85,81.15,81.15,0,0,1-3.81-10.08,1.54,1.54,0,0,1-.07-.71A2.33,2.33,0,0,1,94.82,180.64Z"/><path class="cls-23" d="M93.61,181.14A20.87,20.87,0,0,1,95,185a69.52,69.52,0,0,0,11.74,21.18,106.91,106.91,0,0,0,8.6,8.95,1,1,0,0,1,.35.59c.15.47,0,.7-.51.67-1.62-1.58-3.26-3.15-4.86-4.75a68.47,68.47,0,0,1-14.22-21.16,60,60,0,0,1-3.22-9.1A1,1,0,0,1,93.61,181.14Z"/><path class="cls-2" d="M242.28,162.34c0-.16,0-.32,0-.48.05-3.66,1.22-4.71,4.84-4.39a13.9,13.9,0,0,0,1.43.16c.8,0,1,.34,1,1.09s-.54.71-1,.71H246a1.17,1.17,0,0,0-1.17.68c-.43.88-.25,1.18.74,1.13a10.94,10.94,0,0,1,2.62,0,1.79,1.79,0,0,1,1.59,1.81c.24,3.54-.23,4.05-3.77,4.05-2.59,0-3.42-.75-3.67-3.33,0-.48,0-1,0-1.44Z"/><path class="cls-2" d="M238.81,162.33c0,1.31-.06,2.63,0,3.94.06,1.13-.71.78-1.28.84s-1,0-1-.84c.07-1.83,0-3.67,0-5.5,0-.83-.14-1.19-1-.88-.28.09-.75.44-.88-.09s-.28-1.06.33-1.39a10.87,10.87,0,0,1,1.49-.74c1.68-.59,2.34-.11,2.34,1.67Z"/><path class="cls-2" d="M89.41,162.29c0,.88,0,1.76,0,2.63a2,2,0,0,1-1.88,2.1,14.8,14.8,0,0,1-3.82,0,2,2,0,0,1-1.89-2.08c0-1.71,0-3.43,0-5.14a2,2,0,0,1,2.08-2.17,25,25,0,0,1,3.46,0,2,2,0,0,1,2.06,2.17C89.44,160.62,89.41,161.45,89.41,162.29Z"/><path class="cls-2" d="M75.71,165.14c1.15,0,2,0,2.8,0s.71.43.7.93.16,1.07-.7,1.05c-1.92,0-3.84,0-5.75,0-.39,0-1,.26-1.1-.35s-.3-1.35.49-1.81a17.51,17.51,0,0,0,3.33-2.53c.66-.64,1.7-1.3,1.25-2.37s-1.52-.61-2.36-.66c-.6,0-1.2,0-1.8,0s-1,.23-1-.67.21-1,1-1.08a30.55,30.55,0,0,1,3.58-.19A2.93,2.93,0,0,1,78.74,162,10.88,10.88,0,0,1,75.71,165.14Z"/><path class="cls-5" d="M68.7,143.46H66.3a117.66,117.66,0,0,1,3.78-13.79,93,93,0,0,1,12.62-24.3A104.53,104.53,0,0,1,92,94.18a99.25,99.25,0,0,1,19.94-15.82,95.33,95.33,0,0,1,21.69-9.6,103.77,103.77,0,0,1,14.28-3.2A95.05,95.05,0,0,1,167,64.67a86.64,86.64,0,0,1,15.42,2.1A97.56,97.56,0,0,1,205.62,75a101.94,101.94,0,0,1,17.86,11.67,94.5,94.5,0,0,1,9.85,9.22,98.33,98.33,0,0,1,12.2,16.47,93.75,93.75,0,0,1,9.22,21,57.36,57.36,0,0,1,2.43,10.18h-2.4a8.72,8.72,0,0,1-1-3.3,97.82,97.82,0,0,0-6-17.52c-1.61-3.62-3.6-7-5.53-10.46a33.46,33.46,0,0,0-3.65-5.75,88.73,88.73,0,0,0-11.54-13.25A96.34,96.34,0,0,0,207.78,79a93.63,93.63,0,0,0-32.5-11,97.89,97.89,0,0,0-15.86-.92,94.27,94.27,0,0,0-42.63,11.37,91.68,91.68,0,0,0-15.72,10.69A94.32,94.32,0,0,0,79.8,114.4,92.94,92.94,0,0,0,69,142.7,1.33,1.33,0,0,1,68.7,143.46Z"/><path class="cls-2" d="M183.08,251.44a3.17,3.17,0,0,0-1.75.25c-.93.24-1.31-.12-1.4-1-1.12-1.64-1.44-3.61-2.23-5.39-.73-2.38-1.69-4.68-2.5-7q-.81-2.4-1.73-4.77a.8.8,0,0,1,.55-1.21,25.22,25.22,0,0,1,4.64-1.53c1.41.12,2.36,1.14,3.51,1.77,3.06,2,6.16,3.94,9.32,6-.81-2.9-2-5.54-3-8.28-.78-2.63-.78-2.63,1.81-3.5.71-.24,1.43-.49,2.15-.71,1.26-.39,1.46-.3,2,.93.13.3.24.59.34.89.67,2.11,1.45,4.17,2.22,6.24s1.42,4,2.12,6a22.74,22.74,0,0,1,1.42,4.7c.12.53-.12.76-.62,1-1.55.6-3.09,1.26-4.63,1.9-.87.21-1.43-.37-2.07-.77-1.82-1.33-3.76-2.46-5.67-3.66-1.44-.89-2.85-1.83-4.48-2.81.45,1.53,1,2.8,1.42,4.12.61,1.48,1,3,1.67,4.51.12.47.42.94.05,1.43A9.13,9.13,0,0,1,183.08,251.44Z"/><path class="cls-2" d="M206.12,216a11.5,11.5,0,0,1,4.77-1.77,11.94,11.94,0,0,1,3.6.72l2.4,1.41,2.87,2.72a23.75,23.75,0,0,1,2.64,4.3,8.77,8.77,0,0,1-.21,6.24c-1.48,2.67-4,4.28-6.22,6.23-1.4,1.24-2.91,2.36-4.28,3.64-.77.72-1.34.82-2-.05-1.38-.88-2.21-2.3-3.34-3.43-1.29-1.58-2.7-3.07-4.11-4.55-1.27-1.84-3-3.31-4.35-5.06a6.71,6.71,0,0,0-.86-1c-.91-1-1-1.3,0-2.15,1.84-1.58,3.64-3.21,5.61-4.64a6.22,6.22,0,0,1,1.72-1.25Z"/><path class="cls-16" d="M206.53,235.84a30,30,0,0,1,3.18,3.58c-2.87,1.64-5.72,3.31-8.71,4.72a.73.73,0,0,0-.45.65,31.89,31.89,0,0,1-1.65-4.63c-.14-.46.21-.66.51-.81,2.2-1.12,4.4-2.24,6.54-3.47A.69.69,0,0,1,206.53,235.84Z"/><path class="cls-7" d="M186.22,250.46l-.36-1.41a1.62,1.62,0,0,1,1-.55c1.82-.51,3.61-1.13,5.41-1.72a2.07,2.07,0,0,1,1-.15l2,1a1.73,1.73,0,0,1-.93.7q-3.35,1.08-6.66,2.22A1.66,1.66,0,0,1,186.22,250.46Z"/><path class="cls-2" d="M115.22,216.42a1.12,1.12,0,0,0,.51-.67l.69-.77,9.83,7.17a6.1,6.1,0,0,1,2.68,3,5.22,5.22,0,0,1,.5,3.16,6,6,0,0,1-4.4,4.91c-.68,0-1,.31-.89,1.06a5.82,5.82,0,0,1-1.57,4.84c-1.55,1.38-3.17,2.55-5.43,1.8a12.12,12.12,0,0,1-4.8-2.29c-2.92-2.15-5.82-4.31-8.78-6.4-.52-.37-.12-.45,0-.68a29,29,0,0,0,2.58-3.35c1.3-1.31,2.18-3,3.34-4.38a14.35,14.35,0,0,0,2.19-2.78,12.09,12.09,0,0,0,1.89-2.5A8.36,8.36,0,0,0,115.22,216.42Z"/><path class="cls-23" d="M128.65,225a16.78,16.78,0,0,0-2.4-2.86c1.29-.15,2.2.75,3.18,1.29a69.09,69.09,0,0,0,12.82,5.18A59.23,59.23,0,0,0,153.41,231a65.09,65.09,0,0,0,12.49.38,78.59,78.59,0,0,0,12.79-2,68.09,68.09,0,0,0,20.53-8.85c1.53-1,3-2,4.56-3,.17-.12.37-.34.63-.12-2.42,2.06-4.82,4.15-7.27,6.18-.62.52-.77.88-.09,1.46a10.09,10.09,0,0,1,1.08,1.26c-1,.92-2,2-3.6,1.69-.9-2-.9-2-3.11-1.25l-.45.15c-.89.31-2.05.38-2.61,1s.56,1.58.47,2.49a2,2,0,0,1-1,.62c-1.92.58-3.78,1.37-5.75,1.83-1.17-.48-2-1.58-3.34-1.8a4.89,4.89,0,0,0-2.33.37,74,74,0,0,1-8.53,1.27,9.57,9.57,0,0,0-2,.37,30.87,30.87,0,0,1-3.19.06c-3.2-.37-6.43-.25-9.63-.67a30.64,30.64,0,0,0-5.56-.7,36.32,36.32,0,0,1-5-1.45q-4.23-1.23-8.43-2.58A11.79,11.79,0,0,0,128.65,225Z"/><path class="cls-14" d="M156,92.44c1.42-.54,2.88-.11,4.32-.24C158.88,92.73,157.42,92.3,156,92.44Z"/><path class="cls-14" d="M163.42,92.2c1.35.13,2.74-.29,4.07.24C166.14,92.3,164.75,92.72,163.42,92.2Z"/><path class="cls-14" d="M153.82,92.68c.59-.48,1.29-.14,1.92-.24C155.15,92.91,154.46,92.57,153.82,92.68Z"/><path class="cls-14" d="M168,92.44c.64.1,1.33-.24,1.92.24C169.25,92.57,168.56,92.91,168,92.44Z"/><path class="cls-14" d="M150.23,93.15c.42-.43,1-.16,1.44-.24C151.25,93.35,150.71,93.08,150.23,93.15Z"/><path class="cls-14" d="M208.74,110.42a1.15,1.15,0,0,1,1,.72A1.14,1.14,0,0,1,208.74,110.42Z"/><path class="cls-14" d="M151.91,92.91c.42-.43,1-.16,1.43-.23C152.92,93.11,152.39,92.84,151.91,92.91Z"/><path class="cls-14" d="M170.37,92.68c.48.07,1-.2,1.44.23C171.33,92.84,170.79,93.11,170.37,92.68Z"/><path class="cls-14" d="M172.05,92.91c.4.06.86-.15,1.2.24C172.84,93.1,172.38,93.31,172.05,92.91Z"/><path class="cls-14" d="M147.59,93.63c.34-.4.79-.18,1.2-.24C148.45,93.79,148,93.58,147.59,93.63Z"/><path class="cls-2" d="M214.72,111.1c-.74.53-.95,1.92-1.81,1.83-.67-.06-1.18-1.22-1.88-1.72-2.4-1.71-3.15-3.91-2.88-6.86.31-3.29.08-6.62.07-9.94,0-.21.22-1-.45-.3,0,.74-.59,1.2-1,1.71-1,1.27-2,2.57-2.93,3.89-.85.87-1.3,2.1-2.39,2.76-.29.22-.54.38-.94.11-1.37-.94-2.73-1.88-4.17-2.69-.63-.36-.56-.47-.21-1s1.07-.85,1.11-1.6.74-1.1,1.14-1.63c1.09-1.41,2.2-2.81,3.18-4.3,1.26-1.55,2.47-3.13,3.66-4.74A44.83,44.83,0,0,0,208,82.82c1-1.5,1.27-1.56,2.66-.46.65.51,1.27,1.08,2,1.54a3.44,3.44,0,0,1,1.73,3.51,24.58,24.58,0,0,1-.06,3.64,10.27,10.27,0,0,0-.18,3.08c0,2.18,0,4.37,0,6.86,1.27-1.61,2.32-3.06,3.38-4.5S220,93.61,220.94,92c.42-.65.91-.5,1.4-.12,1.18.92,2.36,1.85,3.51,2.82.82.69.77,1-.12,2.32-1,1.09-1.81,2.28-2.67,3.45-.67.86-1.34,1.72-2,2.62-.94,1.22-1.89,2.43-2.82,3.66l-2.64,3.5C215.39,110.57,215.2,111,214.72,111.1Z"/><path class="cls-2" d="M115,107.59c.21.32.28.56-.07.89-1.32,1.26-2.6,2.54-3.87,3.85-.28.28-.39,0-.57,0-.94-.84-1.47-2-2.38-2.88-1.2-1.37-2-3-3.35-4.3-1.32-1.65-2.41-3.48-3.88-5a44.43,44.43,0,0,1-3.26-4.56c-.09-.71.43-1.09.88-1.46,3-2.45,6-5,9-7.4A8.29,8.29,0,0,1,111,85a6.33,6.33,0,0,1,6,2.21,11.81,11.81,0,0,1,2.58,4.59,7.68,7.68,0,0,1-.32,3.4c-.28.61.13.87.61,1,1.33.5,2.65,1,4,1.54.44.17.92.27,1.17.74l2.18,1c-2,1.29-4,2.5-5.87,3.8-.61.41-1-.2-1.55-.07-1.59-.51-3.06-1.33-4.6-2a3.2,3.2,0,0,0-3.45,1.09c-.22.4,0,.68.22,1,.72.91,1.36,1.88,2.11,2.77A4.8,4.8,0,0,1,115,107.59Z"/><path class="cls-2" d="M195.06,96.77C195,99.07,195,99,192.84,98a20.06,20.06,0,0,0-3.3-1.51c-.73-.2-.69-.84-.75-1.42a1.31,1.31,0,0,1-.23-.51,11,11,0,0,0-.16-1.8,1.35,1.35,0,0,0-1-1.18c-1.82-.59-3.64-1.18-5.45-1.82a1.09,1.09,0,0,0-1.34.4c-.51.53-.76,1.34-1.6,1.53-.47.7-1,.78-1.86.55a17.29,17.29,0,0,0-4.3-.8c-.38,0-1-.19-1.09-.45s.25-.77.57-1.08l.5-.49c.64-1.49,1.93-2.48,2.86-3.73.59-.79,1.25-1.53,1.89-2.29,1.26-1.6,2.73-3,3.89-4.73A47.49,47.49,0,0,0,185.3,74c.84-.59,1.12-1.87,2.38-2,.6.1,1.18.34,1.77.5s1.34.45,2,.68c2.27.75,2.33.83,2.5,3.23-.08,1.42.3,2.8.26,4.21.1,2.39.43,4.76.49,7.14s.33,4.58.48,6.87C195.31,95.42,194.73,96.07,195.06,96.77Z"/><path class="cls-2" d="M146.15,91.47a32,32,0,0,1-4.56,2.12c-2.44,1.07-4.91,2.08-7.37,3.09a10.58,10.58,0,0,1-1.5.36,5.83,5.83,0,0,1-1.91,0,4.26,4.26,0,0,1-2.39-1c-.63-.11-.74-.66-.95-1.12-.72-1.64-1.23-3.37-2-5-.73-2.22-1.56-4.39-2.4-6.56-.69-1.66-1.13-3.33-.25-5.07A7.5,7.5,0,0,1,127.15,75c3.25-1.17,6.48-2.41,9.81-3.34,1.88-.52,1.89-.51,2.66,1.27.18.45.3.91.47,1.36.43,1.21.33,1.5-.88,2-2.84,1.15-5.73,2.15-8.58,3.28-1.4.55-1.42.56-1,2,.61,1.65.61,1.64,2.29,1.1,2.16-.69,4.26-1.53,6.41-2.22,1.93-.62,1.94-.63,2.74,1.2a2.18,2.18,0,0,1,.09.23c.87,2.64.87,2.64-1.79,3.68-2.06.75-4,1.68-6.1,2.43-.81.29-1,.72-.7,1.54.53,1.44.78,1.75,1.71,1.51A24.31,24.31,0,0,0,137.21,90c2-.79,4-1.54,6-2.28,1.6-.58,1.61-.56,2.21,1.06C145.67,89.66,146.37,90.45,146.15,91.47Z"/><path class="cls-2" d="M166.3,90.57l-2.11-.07c-.47-.22-1,0-1.47-.13l-.69-.59c-1.73-1.77-3-3.89-4.62-5.76-.41-.49-.69-1.43-1.47-1.13s-.34,1.14-.34,1.74a21.69,21.69,0,0,0,.17,4.41,1.34,1.34,0,0,1-.26,1.24c-.24.55-.78.41-1.21.52s-.85-.06-1.23.18c-1.2-.19-2.34.56-3.56.26-.68-1-.27-2.22-.35-3.34,0-1.71,0-3.42,0-5.13a3.83,3.83,0,0,0-.15-1.3,6.7,6.7,0,0,1-.1-1.55c0-1.11,0-2.22,0-3.33-.1-2.54.07-5.09,0-7.64a.54.54,0,0,1,.22-.38,21.46,21.46,0,0,1,5.31-.16c.62,0,.87.47.93,1a10.39,10.39,0,0,1,0,2c-.05,1.55,0,3.11,0,4.66,0,.45-.14,1.06.49,1.21s.76-.34,1-.7c1.18-1.7,2.38-3.39,3.56-5.1a24.59,24.59,0,0,1,2.47-3.2,1.42,1.42,0,0,1,.36-.14,20.87,20.87,0,0,0,3.15-.23,11.87,11.87,0,0,1,3.47,0c.61.29.3.72.11,1.08-.35.66-.87,1.22-1.28,1.84-1.34,1.81-2.61,3.67-3.91,5.52-.58.84-1.18,1.67-1.79,2.49a1.32,1.32,0,0,0,.08,2c.34.38.67.78,1,1.18,1.42,2,3,3.92,4.52,5.88a4.82,4.82,0,0,1,.81,1.45c-.06.69,1.12.78.77,1.6-.37-.26-.83,0-1.21-.19l-1.12-.07C167.33,90.51,166.79,90.74,166.3,90.57Z"/><path class="cls-2" d="M224.57,121.05a18.63,18.63,0,0,0-2.65,1.83c-.82.7-1.27.35-1.76-.47a31.82,31.82,0,0,0-2.32-3.32c-.48-.6-.41-.9.23-1.24a9.86,9.86,0,0,0,1.24-.91,1.41,1.41,0,0,1,.82-.94c1.43-.77,2.69-1.79,4.05-2.64s2.62-1.69,3.86-2.63c2-1.38,2-1.38.62-3.48-.74-1.14-1.41-2.31-2.19-3.43-.37-.6,0-.93.46-1.22a22.81,22.81,0,0,0,2.53-1.7c2-1.29,2-1.28,3.33.8q4.68,7.39,9.36,14.77c.42.66.9,1.3,0,2-1.34.85-2.56,1.89-3.95,2.67-.65.2-.94-.24-1.22-.69-.94-1.49-1.92-3-2.81-4.46-.37-.64-.69-.75-1.3-.3-.86.64-1.8,1.18-2.66,1.82-.35.26-.68.58-1.17.51Z"/><path class="cls-2" d="M101.58,123.83c-.61-1-1.75-1.45-2.67-2.12a32,32,0,0,0-4.08-2.85c-.83.12-1.25-.58-1.82-1s-.92-.74-1.41-1.08c-1.56-1.19-1.56-1.19-2.64.41-.73,1.09-1.45,2.19-2.19,3.28-.32.46-.64.94-1.32.88-1.49-1.16-3.26-2-4.42-3.53a2.33,2.33,0,0,1,.56-1.17c3.42-5.06,6.72-10.22,10.12-15.29.3-.45.5-1,1.15-1.14a44.52,44.52,0,0,1,4.48,3.09c.45.57.09,1.05-.22,1.51-1,1.41-1.81,2.89-2.79,4.29-.45.64-.35,1,.29,1.44,1.09.73,2.14,1.52,3.21,2.27,1.58,1.15,3.16,2.29,4.79,3.38.89.82,2.14,1.22,2.76,2.36C104.25,120.45,103.31,122.43,101.58,123.83Z"/><path class="cls-24" d="M169.38,89.39c-1.94-2.34-3.79-4.76-5.58-7.22.37-.73,1-.65,1.67-.6a96.57,96.57,0,0,1,10.46,1.24c.64.13,1.38.09,1.82.75-1.59,2-3.21,4-4.94,5.86a4.51,4.51,0,0,0-3-.54C169.49,88.9,169.43,89.15,169.38,89.39Z"/><path class="cls-24" d="M125.78,89.79c.73,1.8,1.45,3.6,2.19,5.39a6.53,6.53,0,0,0,.45.82,7.22,7.22,0,0,1-2.24,1.5c-.45.25-.94.45-1.15,1l-5.9-2.22c-.33-.13-.73-.19-.38-.72a5.87,5.87,0,0,0,.58-3.82c.61.73,1.2.65,2,.14a23.36,23.36,0,0,1,3.26-1.78C124.94,89.91,125.31,89.6,125.78,89.79Z"/><path class="cls-20" d="M224.33,113.54c-1.55,1.31-3.39,2.2-5,3.4a39.33,39.33,0,0,0-3.74-4.6c-.32-.39-.83-.64-.85-1.24a52.72,52.72,0,0,1,3.37-4.5,1.08,1.08,0,0,1,.94.43,66.79,66.79,0,0,1,5.24,6.28A.6.6,0,0,1,224.33,113.54Z"/><path class="cls-18" d="M194.87,94.84c-.15-2.32-.31-4.63-.47-7,2.17.49,4,1.75,5.95,2.71a4.18,4.18,0,0,1,1.41.88,35.23,35.23,0,0,1-4.51,5.8A4.12,4.12,0,0,0,195.11,96C194.75,95.69,195.1,95.2,194.87,94.84Z"/><path class="cls-25" d="M155.51,90.28c-.07-2.35-.15-4.71-.21-7.06,0-.28-.15-.71.3-.79s.84-.21,1.12.17c1.76,2.4,3.85,4.56,5.31,7.18C159.88,90.26,157.66,89.77,155.51,90.28Z"/><path class="cls-25" d="M115,107.59c-1.17-1.49-2.34-3-3.53-4.47-.38-.46-.45-.81.14-1.11l.1-.06a3.36,3.36,0,0,1,4.71-.53c1.06.7,2.42.89,3.41,1.77-.8,1.18-2.14,1.72-3.13,2.67C116.07,106.42,115.3,106.79,115,107.59Z"/><path class="cls-21" d="M105.38,118.6l-2.88-2.15c-.26-.39,0-.69.18-1a40.13,40.13,0,0,1,5.58-6.21,9,9,0,0,1,2.19,3c-1.43,1.68-3,3.21-4.37,5A2.8,2.8,0,0,0,105.38,118.6Z"/><path class="cls-25" d="M188.78,94.58v.49a93.64,93.64,0,0,0-9.3-2.91.71.71,0,0,1-.5-.47s0-.08,0-.11c.79-.74,1.19-2.13,2.24-2.26s2,.58,3,.91,2.31.84,3.49,1.15c.74.2,1,.57.81,1.27C188.87,93.28,188.58,94,188.78,94.58Z"/><path class="cls-22" d="M201.46,102.47a18.9,18.9,0,0,1,2.21-2.91c1.36,1.25,3,2.1,4.33,3.42,0,1.07,0,2.14,0,3.21,0,.26.12.61-.21.74s-.41-.17-.59-.31A63.56,63.56,0,0,0,201.46,102.47Z"/><path class="cls-26" d="M208,103c-1.56-1-3.3-1.76-4.33-3.42,1.26-1.9,2.67-3.68,4.1-5.45.34.27.24.65.24,1C208,97.73,208,100.36,208,103Z"/><path class="cls-22" d="M149.47,87.88l0,3.36-2.82.66c-.36.08-.5-.11-.54-.43l-.93-2.64A4.53,4.53,0,0,1,149.47,87.88Z"/><path class="cls-14" d="M194.87,94.84c.34.34.13.8.24,1.18s0,.5-.05.75A5,5,0,0,1,194.87,94.84Z"/><path class="cls-14" d="M130.81,97.05h1.91A2.17,2.17,0,0,1,130.81,97.05Z"/><path class="cls-14" d="M166.3,90.57a3.34,3.34,0,0,1,1.51.16C167.31,90.7,166.77,90.92,166.3,90.57Z"/><path class="cls-14" d="M162.72,90.37c.49.06,1-.1,1.47.13C163.7,90.47,163.19,90.65,162.72,90.37Z"/><path class="cls-14" d="M153.07,91a2.16,2.16,0,0,1,1.23-.18C153.93,91.13,153.48,91,153.07,91Z"/><path class="cls-14" d="M168.94,90.8a2.11,2.11,0,0,1,1.21.19C169.74,91,169.3,91.13,168.94,90.8Z"/><path class="cls-2" d="M134,227.52a1.08,1.08,0,0,1,.81,0c4.19,1.35,8.45,2.46,12.6,4,1.48.15,2.26,1.28,3.14,2.27a6.75,6.75,0,0,1,.73,4.36,11.39,11.39,0,0,1-1.7,4.34,5.28,5.28,0,0,1-4.32,2.24c.35.3.36.81.51,1.24.38,1.86,1.13,3.65,1.12,5.59,0,.47.18.95-.67.73a31.43,31.43,0,0,0-4-.76c-1.12-.14-1.81-.57-1.86-1.77a13.64,13.64,0,0,1-1.2-4.71c-.19-1.6-1.21-2.11-2.47-2.52-.67-.23-.84.23-1,.7-.44,1.28-.86,2.57-1.29,3.85-.12.36-.1.82-.58,1-.2.95-.67,1.15-1.58.76-1.32-.55-2.67-1-4-1.44-.71-.22-.49-.54-.25-.94a14.93,14.93,0,0,1,.93-4c.8-1.94,1.25-4,1.92-6s1.23-4,2-5.91C133.26,229.59,133.13,228.36,134,227.52Z"/><path class="cls-2" d="M158.16,252.38c-.32,1-.94,1.23-1.95,1.05a32.79,32.79,0,0,0-3.44-.3c-1.46-.12-1.46-.12-.86-1.46.11-1.52,1-2.74,1.46-4.15s1.14-2.72,1.65-4.11c.75-1.54,1.37-3.14,2-4.74.76-1.55,1.31-3.18,2-4.78a1.6,1.6,0,0,1,1.88-1.2,14.58,14.58,0,0,0,1.87.15h3.11c.82.12.86.88,1.15,1.43.74,1.62,1.4,3.28,2.15,4.9,1,2.39,2,4.78,3.12,7.14.58,1.73,1.66,3.27,1.95,5.11l.42,1.39c-1.64.17-3.22.32-4.8.52-1,.12-1.79.07-1.88-1.19a.87.87,0,0,1-.48-.5c-.39-1.37-1.35-1.67-2.65-1.58s-2.69.05-4,0a1.63,1.63,0,0,0-1.88,1.24A2.2,2.2,0,0,1,158.16,252.38Z"/><path class="cls-27" d="M129.15,242.6a28,28,0,0,1-1.21,3.8c-2.74-1.18-5.43-2.44-8.07-3.8a12.19,12.19,0,0,1-2.73-1.69,6.34,6.34,0,0,0,5.23-2c.7-.16,1.17.39,1.73.61,1.47.58,2.88,1.3,4.33,1.93C128.91,241.67,129.4,241.91,129.15,242.6Z"/><path class="cls-28" d="M174.19,251.42a39.27,39.27,0,0,1-2.17-5,.33.33,0,0,1,.21-.47,15.82,15.82,0,0,1,5.75-.79l2,5.51c-1.52-.13-3,.44-4.44.6C175.06,251.34,174.63,251.41,174.19,251.42Z"/><path class="cls-29" d="M153.59,247.6a25.27,25.27,0,0,1-1.68,4.07c-1.39-.7-2.94-.58-4.42-.82-.4-.06-.62.27-.65.68a41.76,41.76,0,0,1-1.41-5.63,1.28,1.28,0,0,1,1.23-.23c2,.31,3.91.64,5.88.89C153.08,246.63,153.8,246.69,153.59,247.6Z"/><path class="cls-30" d="M133.81,248c.58-1.85,1.19-3.69,1.74-5.55.17-.59.4-.72.9-.42l.12,0c1.81.44,2.92,1.39,3,3.45a28.83,28.83,0,0,0,.77,4.19C138.12,249.37,136,248.51,133.81,248Z"/><path class="cls-30" d="M158.16,252.38a.93.93,0,0,1,0-.24c.88-2.4.88-2.4,3.46-2.4,1.32,0,2.63,0,3.94-.07,1-.09,1.64.23,1.89,1.26a11,11,0,0,0,.45,1.21,8,8,0,0,1-3.26.39A22.22,22.22,0,0,1,158.16,252.38Z"/><path class="cls-13" d="M92.83,100.38l-7.58,11.31-4.11,6.17a3.34,3.34,0,0,1-.52,1.8,91.44,91.44,0,0,0-8.22,22.67,1.62,1.62,0,0,1-.59,1.13H69a28.39,28.39,0,0,1,1.36-6.64,92,92,0,0,1,7.51-19,95.51,95.51,0,0,1,9.54-14.72,90.7,90.7,0,0,1,9.78-10.66,92.48,92.48,0,0,1,19.67-14.1,95,95,0,0,1,15.93-6.84,105.29,105.29,0,0,1,15.82-3.58,96.24,96.24,0,0,1,17.86-.85,87.94,87.94,0,0,1,15.81,2.1A95.13,95.13,0,0,1,222,88.52a90,90,0,0,1,8.45,7.77,93.54,93.54,0,0,1,12.12,15.81,89.42,89.42,0,0,1,7.93,16,92.63,92.63,0,0,1,4.21,14.51c.05.27.06.55.09.83h-1.2a2.08,2.08,0,0,1-.56-1.29A88.55,88.55,0,0,0,246.21,122a92,92,0,0,0-18.06-25.74,94.43,94.43,0,0,0-25.59-18.47,101.31,101.31,0,0,0-11.88-4.73c-.45-.16-.94-.13-1.39-.31a4.89,4.89,0,0,1-1.66-.53A83.23,83.23,0,0,0,171.39,69c-.58-.07-1.12-.13-1.29-.81h-3.76c-1.12.3-2.29-.11-3.4.22h0a5.39,5.39,0,0,1-2,.13c-1.71-.06-3.43.33-5.1.16-2-.21-4-.1-5.92-.17-.29,0-.65-.18-.86.19,0,0,0,.08,0,.12a.47.47,0,0,1,.09.22c0,2.74.43,2.35-2.24,2.82-1.95.35-3.9.68-5.82,1.16a2,2,0,0,1-1.72,0,3.86,3.86,0,0,1-.34-.75c-.14-.68-.46-.77-1.11-.57-3.8,1.16-7.55,2.47-11.28,3.84a7.66,7.66,0,0,0-3.53,2.73,2,2,0,0,1-1.09.89,60.62,60.62,0,0,0-10,5.68c-.34.26-.76.2-1.12.35a15.13,15.13,0,0,0-5.4,3.4c-2.38,2-4.78,4-7.15,5.94-.3.25-.84.41-.65,1-.2.76-3.75,4.71-4.42,4.91A.82.82,0,0,1,92.83,100.38Z"/><path class="cls-7" d="M189.29,72.78a4.88,4.88,0,0,1,2,.27A80.81,80.81,0,0,1,205.48,79a93.34,93.34,0,0,1,25.34,19.66,89.88,89.88,0,0,1,12.32,16.79,95.86,95.86,0,0,1,7.9,18,68,68,0,0,1,2.54,10h-2.64c-.37-.37-.34-.88-.44-1.34a98.82,98.82,0,0,0-7.25-20.73c-.29-.61-.67-1.18-1-1.78-.22-.41-.53-.83-.21-1.33.33-.35.52-.64.17-1.18q-5.25-8.17-10.41-16.4c-.31-.5-.54-.73-1.07-.28a8.72,8.72,0,0,1-1.1.67.5.5,0,0,1-.56-.09,43.44,43.44,0,0,1-3.47-3.45.61.61,0,0,1-.13-.66,5.39,5.39,0,0,1,.52-.79c.41-.44.26-.73-.16-1.06q-1.87-1.49-3.71-3c-.42-.34-.75-.44-1,.16-.33.27-.63.07-.86-.12-2-1.71-4.26-3.16-6.26-4.91a2.89,2.89,0,0,0-1.6-3,22.19,22.19,0,0,1-1.94-1.57c-1.31-1.06-1.39-1-2.28.49-.39.33-.75.13-1.09-.09a77.68,77.68,0,0,0-12.47-6,2.16,2.16,0,0,1-1-.63,2.39,2.39,0,0,0-2.29-2.83A11,11,0,0,1,189.29,72.78Z"/><path class="cls-15" d="M229.08,118c1.33-.92,2.67-1.83,4-2.78.54-.41.81-.36,1.17.24,1,1.63,2,3.22,3,4.82.21.32.3.91.93.62a12.72,12.72,0,0,1,2,3.52,82.24,82.24,0,0,1,6.07,17.23c.14.61.4,1.24-.09,1.82-1.79,0-3.59,0-5.39.06-.71,0-.95-.34-1.1-1a77.57,77.57,0,0,0-7.23-18.78C231.37,121.81,230.2,119.92,229.08,118Z"/><path class="cls-16" d="M246.15,143.46a33.62,33.62,0,0,0-1.77-7.49,85.82,85.82,0,0,0-5.69-13.87,11.76,11.76,0,0,1-.49-1.21,37.18,37.18,0,0,1,3.85-2.61,53.36,53.36,0,0,0,2.32,4.82,99.35,99.35,0,0,1,6.51,19.17,5.86,5.86,0,0,1,.06,1.19Z"/><path class="cls-16" d="M71.81,143.46c.79-3.49,1.67-7,2.79-10.36a89.76,89.76,0,0,1,5.17-12.47c.47-.92.92-1.85,1.37-2.77,1.33,1.28,3,2,4.34,3.37.19.52-.13.93-.34,1.34A81.32,81.32,0,0,0,78,142.07a2.28,2.28,0,0,1-.62,1.39Z"/><path class="cls-31" d="M91.73,116.62l3.1,2.24c.06.71-.46,1.18-.78,1.7a78.67,78.67,0,0,0-9.26,22.27c-.14.57-.38.69-.88.68-1.07,0-2.15,0-3.23,0-.35-.38-.21-.82-.11-1.24a83.84,83.84,0,0,1,10.61-25A1.44,1.44,0,0,1,91.73,116.62Z"/><path class="cls-17" d="M91.73,116.62a31.87,31.87,0,0,1-2.5,4.45A84.9,84.9,0,0,0,83.76,133q-1.68,4.71-2.94,9.55c-.08.3-.09.62-.14.93H77.33a82.13,82.13,0,0,1,8.15-22.23c.56.09.73-.34,1-.7,1-1.45,2-2.88,2.87-4.38.46-.77.85-.91,1.49-.27A9.31,9.31,0,0,0,91.73,116.62Z"/><path class="cls-13" d="M242.55,112.1a39.72,39.72,0,0,1-3.28-4.68,113.43,113.43,0,0,0-7.6-9.48,88.93,88.93,0,0,0-12.49-11.43,82.41,82.41,0,0,0-10.66-7,98.33,98.33,0,0,0-16.1-7.29,93.9,93.9,0,0,0-13.84-3.53,99.81,99.81,0,0,0-20.92-1.39c-3,.1-6,.47-9,.87a98.6,98.6,0,0,0-11.33,2.22A87.19,87.19,0,0,0,122,76a93.82,93.82,0,0,0-18,10.89,98,98,0,0,0-12.43,11.5A92.43,92.43,0,0,0,80.36,113.6a97.37,97.37,0,0,0-7.43,15.64,102.46,102.46,0,0,0-3.65,12.6c-.12.54,0,1.13-.32,1.62H68.7a31,31,0,0,1,1.33-6.4,93.82,93.82,0,0,1,8-20.16A96,96,0,0,1,88,102a98.59,98.59,0,0,1,8.27-8.94,91,91,0,0,1,17-12.93A93.93,93.93,0,0,1,133,71.22a101.9,101.9,0,0,1,15.54-3.53,93.3,93.3,0,0,1,17.74-.87,89.15,89.15,0,0,1,16,2.13A94.78,94.78,0,0,1,222,88.25a93.39,93.39,0,0,1,20.32,23A1.51,1.51,0,0,1,242.55,112.1Z"/><path class="cls-32" d="M246.23,163c.55,0,1.37-.15,1.35,1.14,0,1.06-.66,1-1.36,1-1.14,0-1.66-.51-1.63-1.55C244.6,163,244.6,163,246.23,163Z"/><path class="cls-3" d="M87.16,162.37v1.08c0,1.67-.06,1.69-1.75,1.7-1,0-1.46-.32-1.38-1.39s0-2.06,0-3.1c0-.81.3-1.12,1.12-1.14,2-.05,2-.07,2,1.9Z"/><path class="cls-33" d="M178,245.18l-5.35.95c-.24,0-.48.07-.61.31-1.14-2.37-2.22-4.77-3.15-7.23.5-.52,1.19-.41,1.79-.45,1.61-.12,3.16-.71,4.79-.55C176.3,240.53,177.14,242.86,178,245.18Z"/><path class="cls-15" d="M206.53,235.84a74.82,74.82,0,0,1-6.72,3.61c-.35.17-.75.29-.91.71a52.35,52.35,0,0,1-2.15-6,21.47,21.47,0,0,1,5.72-2.87A40.83,40.83,0,0,1,206.53,235.84Z"/><path class="cls-34" d="M175.45,238.21a24.79,24.79,0,0,1-6.58,1,41,41,0,0,1-2.09-4.82,1.46,1.46,0,0,1,1.14-.53,43.11,43.11,0,0,0,4.8-.6,1.36,1.36,0,0,1,1,.17A35.33,35.33,0,0,1,175.45,238.21Z"/><path class="cls-19" d="M182.09,232.77c.55-.68,1.4-.69,2.13-1,1.52-.55,3.07-1,4.61-1.5,1.18,2.87,2.23,5.79,3.24,8.87-3.3-2.08-6.43-4-9.55-6A2.69,2.69,0,0,1,182.09,232.77Z"/><path class="cls-24" d="M202.47,231.28a41.88,41.88,0,0,1-5.72,2.87,62,62,0,0,1-2.22-6.21c1.41-.12,2.35-1.23,3.6-1.69A54.74,54.74,0,0,1,202.47,231.28Z"/><path class="cls-30" d="M193.33,246.63a43.42,43.42,0,0,1-7.47,2.42,36.35,36.35,0,0,1-1.6-4.53.5.5,0,0,1,.27-.77,5.71,5.71,0,0,1,3.13-.74A50,50,0,0,1,193.33,246.63Z"/><path class="cls-23" d="M173.74,233.43c-2.29.53-4.65.61-7,1l-.72-1.46c-.09,0-.12-.09-.1-.14s.06-.08.09-.08c1.14-.83,2.52-.45,3.78-.64,2.46-.37,4.91-.73,7.35-1.23.49-.1,1.09-.4,1.57.13-1.52.51-3.05,1-4.57,1.53C173.76,232.64,173.22,232.81,173.74,233.43Z"/><path class="cls-35" d="M187.66,243c-.85.27-1.72.53-2.57.82-.34.12-.82.14-.83.69L182.55,240l.21-.19Z"/><path class="cls-17" d="M215.39,223.36a10.74,10.74,0,0,1,1.83,3,2.88,2.88,0,0,1-.76,3.07c-1.24,1.13-2.55,2.18-3.81,3.28-.34.3-.58.3-.89-.05-1.07-1.28-2.17-2.53-3.26-3.79-.14-.49.21-.75.52-1,1.87-1.42,3.75-2.82,5.53-4.37C214.78,223.33,215.05,223.1,215.39,223.36Z"/><path class="cls-36" d="M215.39,223.36c-1.52,1.18-3,2.35-4.56,3.54a8.52,8.52,0,0,0-2.33,2,27.51,27.51,0,0,1-2.66-3.06c-.29-.58.1-.92.49-1.19,2-1.37,3.86-2.94,5.78-4.43A10.42,10.42,0,0,1,215.39,223.36Z"/><path class="cls-37" d="M212.11,220.2c-.61,1.27-1.91,1.79-2.89,2.65a30.5,30.5,0,0,1-2.76,2,1.19,1.19,0,0,0-.62.95c-2.06-2-2.06-2,.06-3.77.7-.59,1.38-1.19,2.1-1.75C209.45,219.18,210.52,219.16,212.11,220.2Z"/><path class="cls-15" d="M129.15,242.6c0-.46-.3-.64-.72-.81-1.59-.67-3.17-1.38-4.74-2.1-.46-.21-.88-.51-1.32-.76a5.59,5.59,0,0,0,1.13-6h1.55c1.72.75,3.38,1.61,5.1,2.35.53.23,1.17.47.91,1.29A57.29,57.29,0,0,1,129.15,242.6Z"/><path class="cls-24" d="M131.06,236.6c-.09-.88-.88-.94-1.46-1.21-1.25-.59-2.53-1.13-3.79-1.7a1.54,1.54,0,0,1-.76-.73,6.2,6.2,0,0,0,4.13-4.56,6,6,0,0,1,3.68,1.45.55.55,0,0,1,.12.75A55.08,55.08,0,0,1,131.06,236.6Z"/><path class="cls-38" d="M118.79,233.16a3.25,3.25,0,0,1-1.59,2.24,1.89,1.89,0,0,1-2.11-.33c-1.23-.87-2.43-1.8-3.66-2.67-.43-.31-.57-.54-.16-1,.7-.81,1.33-1.68,2-2.54.24-.31.43-.52.85-.19,1.29,1,2.62,1.94,3.91,2.93A2.12,2.12,0,0,1,118.79,233.16Z"/><path class="cls-39" d="M121.55,228.4a2.21,2.21,0,0,1-1.21-.51c-1.16-.84-2.29-1.72-3.46-2.54-.46-.32-.51-.53-.16-1,1.7-2.36,1.69-2.38,4-.66.79.59,1.58,1.2,2.32,1.85a1.35,1.35,0,0,1,.3,1.74A1.81,1.81,0,0,1,121.55,228.4Z"/><path class="cls-23" d="M133,230.6c0-.53-.39-.74-.79-.91-1-.44-2-.86-3-1.29a7,7,0,0,0-.53-3.39c.09-.55.42-.46.78-.29,1.35.63,2.7,1.28,4.06,1.9.43.19.65.42.46.9A14,14,0,0,1,133,230.6Z"/><path class="cls-23" d="M162.7,232.9a7.65,7.65,0,0,1-1.43,0c-1.06-.16-1.83.1-2.15,1.22a3.51,3.51,0,0,1-2.54.3c-2.13-.2-4.27-.42-6.39-.71a10.45,10.45,0,0,0-2.83-2.26c1-.6,2.1-.06,3.11.1a61.5,61.5,0,0,0,9.28.88,12.17,12.17,0,0,1,2.95.24c.07,0,.1.09.07.13A.1.1,0,0,1,162.7,232.9Z"/><path class="cls-6" d="M162.7,232.9v-.19h3.35c0,.07,0,.15,0,.22Z"/><path class="cls-16" d="M193.65,76.37a73,73,0,0,1,13.28,6.15c.39.24.73.65,1.27.56a33.56,33.56,0,0,1-2.76,3.62c-.5.35-.91.07-1.33-.17A68.68,68.68,0,0,0,195,82.09a1.48,1.48,0,0,1-1.07-1.4A39,39,0,0,1,193.65,76.37Z"/><path class="cls-15" d="M193.91,80.69A1.94,1.94,0,0,0,195,81.78a65,65,0,0,1,9.51,4.67,1.82,1.82,0,0,0,.9.25,39.69,39.69,0,0,1-3.68,4.78c-.92,0-1.49-.68-2.22-1-1.73-.81-3.43-1.71-5.14-2.57Q194.16,84.29,193.91,80.69Z"/><path class="cls-40" d="M224.33,113.54c-1.12-1-1.88-2.33-2.92-3.4a30,30,0,0,0-3.32-3.54,32.79,32.79,0,0,1,2.83-3.69,5.55,5.55,0,0,1,1.87,1.63,67.15,67.15,0,0,1,5.41,6.37A34.68,34.68,0,0,1,224.33,113.54Z"/><path class="cls-16" d="M214,87.16a34.05,34.05,0,0,1,5.46,3.93,5.4,5.4,0,0,0,1.66,1.1,53.89,53.89,0,0,1-3.33,4.32.71.71,0,0,1-.89,0,24.12,24.12,0,0,1-2.72-2.11c-.46-.4-.3-1-.3-1.46a5.54,5.54,0,0,1,.1-1.77Z"/><path class="cls-41" d="M228.2,110.91c-1-.43-1.39-1.45-2.07-2.19-1.77-1.91-3.48-3.87-5.21-5.81a16.41,16.41,0,0,1,2-2.59,17.24,17.24,0,0,1,3.23,3c.18.18.26.5.62.42,1.11,1.71,2.22,3.43,3.36,5.13.28.42.27.68-.19.94S228.76,110.56,228.2,110.91Z"/><path class="cls-30" d="M226.72,103.78c-.09.42-.36.26-.51.11-1.12-1.18-2.23-2.38-3.34-3.57a26.29,26.29,0,0,1,2.61-3.43,31.15,31.15,0,0,0,4.16,4.2c-.89.63-1.76,1.32-2.7,1.87C226.5,103.23,226.51,103.43,226.72,103.78Z"/><path class="cls-42" d="M214,91.19c-.46,2.24.66,3.63,2.48,4.64.44.25.71.79,1.33.68-1.11,1.83-2.54,3.41-3.94,5.41,0-1.93,0-3.53,0-5.14A38.66,38.66,0,0,1,214,91.19Z"/><path class="cls-17" d="M97.71,113.06c-1.24-.86-2.47-1.75-3.74-2.57-.58-.36-.48-.64-.16-1.11,1.11-1.61,2.17-3.26,3.25-4.89.21-.31.57-.61.15-1,1.28-1.19,2.29-2.67,3.85-3.55a42.25,42.25,0,0,1,3.84,5c-.26,1.26-1.37,1.91-2.12,2.78-1.37,1.59-2.78,3.16-4.12,4.79C98.42,112.8,98.22,113.2,97.71,113.06Z"/><path class="cls-24" d="M97.71,113.06a22.26,22.26,0,0,0,2.46-2.85c1.62-1.72,3.16-3.51,4.73-5.28a33.53,33.53,0,0,1,3.36,4.34c0,.5-.43.75-.74,1a55.26,55.26,0,0,0-4.75,5.5,2.86,2.86,0,0,0-.27.64A55.84,55.84,0,0,1,97.71,113.06Z"/><path class="cls-16" d="M110.91,85.21a80.42,80.42,0,0,1,12.18-6.92c-.73,1.72-.28,3.37.29,5,.25.48,0,.8-.4,1-2,1-3.92,2.11-5.88,3.17-.06,0-.15,0-.23,0A6.46,6.46,0,0,0,110.91,85.21Z"/><path class="cls-17" d="M116.87,87.41a36.83,36.83,0,0,1,5.47-3.1c.45-.23,1-.34,1-1a62.31,62.31,0,0,1,2.4,6.49c-1.57.83-3.16,1.63-4.71,2.5-1.32.74-1.3.78-1.74-.57A13.41,13.41,0,0,0,116.87,87.41Z"/><path class="cls-41" d="M113.54,93.91a1.39,1.39,0,0,1-.64,1.22c-1.37,1.16-2.78,2.29-4.13,3.47-.45.39-.64.21-.92-.17-.72-1-1.45-1.91-2.21-2.83-.38-.46-.28-.73.15-1.07,1.27-1,2.5-2.1,3.79-3.11,1.08-.86,1.73-.78,2.67.26A4.09,4.09,0,0,1,113.54,93.91Z"/><path class="cls-16" d="M101.06,99.93c-1.26,1.2-2.24,2.72-3.85,3.55a42.18,42.18,0,0,1-4.38-3.1,1.24,1.24,0,0,0,.9-.49c1.33-1.45,2.66-2.89,4-4.34C99,96.86,99.87,98.52,101.06,99.93Z"/><path class="cls-30" d="M164.56,76.35a65.76,65.76,0,0,1,3.89-5.5,96.84,96.84,0,0,1,15.41,2.49c.6.15,1.29.19,1.62.87a27.4,27.4,0,0,1-3.83,4.56,1.88,1.88,0,0,1-1.28,0A84.29,84.29,0,0,0,167,76.91,3.75,3.75,0,0,1,164.56,76.35Z"/><path class="cls-31" d="M164.56,76.35a100.06,100.06,0,0,1,16.54,2.2,5.25,5.25,0,0,1,.55.22,43.61,43.61,0,0,1-3.9,4.79c-2.55-.58-5.14-.87-7.72-1.24a35.67,35.67,0,0,1-4.26-.38,2.53,2.53,0,0,0-2,.23c-1.91-2.16-1.91-2.16-.32-4.42C163.82,77.27,164.2,76.82,164.56,76.35Z"/><path class="cls-7" d="M185.48,74.21a51.83,51.83,0,0,0-8.42-1.92,56.05,56.05,0,0,0-7.86-1,.8.8,0,0,1-.75-.48l1.65-2.62c.91.86,2.12.51,3.17.66a87.89,87.89,0,0,1,13.16,2.65,1.85,1.85,0,0,1,1.2.71C186.6,72.56,186.37,73.75,185.48,74.21Z"/><path class="cls-43" d="M184.16,85.15l4-4.8c.12,2.26.23,4.19.34,6.26Z"/><path class="cls-14" d="M188.78,94.58c-.37-.61-.11-1.28-.18-1.93A4.85,4.85,0,0,1,188.78,94.58Z"/><path class="cls-30" d="M139.35,73c3.05-.57,6.06-1.36,9.16-1.72.42,0,.51-.3.51-.65,0-.59,0-1.19,0-1.78a73.63,73.63,0,0,1,.19,7.72,2.53,2.53,0,0,1-1.44.5,86.64,86.64,0,0,0-16.45,4.4c-.59.22-1.24.85-1.94.14-.74-1.51-.69-1.68.81-2.25,3-1.13,5.9-2.29,8.89-3.34,1-.35,1.22-.76.71-1.67A7.67,7.67,0,0,1,139.35,73Z"/><path class="cls-24" d="M149.47,87.88a14.72,14.72,0,0,0-4.25,1c-.31-1.27-.95-1.3-2.1-.81-2.81,1.19-5.71,2.17-8.56,3.28-1,.4-1.59.22-2-.88-.76-2.16-.81-2.14,1.33-3l5.3-2.12a.75.75,0,0,0,.57,0,60.56,60.56,0,0,1,8.09-1.91c.66-.13,1.09-.41,1.08-1.16a1,1,0,0,1,.33-.85A58.91,58.91,0,0,1,149.47,87.88Z"/><path class="cls-17" d="M129.4,81.65a3.72,3.72,0,0,0,2.24-.58,87.17,87.17,0,0,1,16.87-4.44,3.45,3.45,0,0,1,.72,0l0,3.36c-.49.43-1.13.34-1.7.47-1.9.42-3.83.72-5.72,1.21a1.46,1.46,0,0,1-1.05,0c-.65-1.55-.65-1.55-2.32-1-2.41.84-4.83,1.62-7.2,2.54-1,.4-1.45.18-1.65-.81A7.27,7.27,0,0,0,129.4,81.65Z"/><path class="cls-33" d="M140.79,81.68A35.38,35.38,0,0,1,149.26,80l0,1.4c-.05,2.07-.06,2-2.05,2.46a59,59,0,0,0-6.66,1.55,1.4,1.4,0,0,1-1.36-.09c.75-.45,2-.4,2.26-1.2S141.05,82.5,140.79,81.68Z"/><path class="cls-7" d="M149.05,68.77c.17-.37.51-.32.82-.31,3.9.16,7.78-.27,11.67-.25a2.56,2.56,0,0,1,1.39.25l-2.2,3.11c-1.88.14-3.76.26-5.65.23,0-.82-.06-1.65-.05-2.48,0-.49-.13-.74-.66-.72C152.6,68.67,150.82,68.72,149.05,68.77Z"/><path class="cls-44" d="M155.08,71.8a10.94,10.94,0,0,1,5.65-.23c-1.29,1.87-2.6,3.73-3.86,5.61a1.16,1.16,0,0,1-1.35.5c-.66-.13-.38-.7-.39-1.09C155.09,75,155.09,73.4,155.08,71.8Z"/><path class="cls-7" d="M162.94,68.45c1.1-.49,2.27-.13,3.4-.22C165.22,68.54,164.06,68.22,162.94,68.45Z"/><path class="cls-34" d="M150.19,233.75c1-.82,2-.07,2.94,0,2,.13,4,.45,6,.41a34.31,34.31,0,0,1-1.86,4.58,1.59,1.59,0,0,1-.88.31c-1.84-.08-3.7.06-5.41-.82A7.63,7.63,0,0,0,150.19,233.75Z"/><path class="cls-19" d="M145.07,236.55a6.1,6.1,0,0,1-.77,2.41,1.3,1.3,0,0,1-1.64.59c-1.67-.52-3.33-1.06-5-1.52-.59-.16-.54-.41-.4-.84.35-1.06.68-2.12,1-3.18.13-.44.31-.66.85-.48,1.58.53,3.17,1,4.76,1.5A1.54,1.54,0,0,1,145.07,236.55Z"/><path class="cls-15" d="M153.59,247.6a.71.71,0,0,0-.71-.68c-2.51-.14-4.95-.82-7.45-1l-.44-1.44a5.43,5.43,0,0,0,4.32-2.15,1.83,1.83,0,0,1,1.5-.11c1.22.2,2.45.29,3.66.5.43.08,1.05.06.8.83A27.68,27.68,0,0,1,153.59,247.6Z"/><path class="cls-45" d="M155.27,243.53c-.52-1-1.57-.5-2.33-.66-1.19-.24-2.42-.41-3.63-.56a15.91,15.91,0,0,0,1.66-4.08,55.15,55.15,0,0,0,6.29.5A39.44,39.44,0,0,1,155.27,243.53Z"/><path class="cls-46" d="M165.29,245.33c-1.4,0-2.58,0-3.76,0-.55,0-.73-.14-.5-.68.64-1.49,1.25-3,2-4.73Z"/></g></g></svg>